<svg width="89" height="157" viewBox="0 0 89 157" fill="none" xmlns="http://www.w3.org/2000/svg">
<path d="M9 10.0242L5.00453 10.2144L5.00453 10.2145L5.00454 10.2147L5.00457 10.2153L5.00469 10.2179L5.00519 10.2284L5.00718 10.2702L5.01515 10.4375L5.04703 11.1069L5.17452 13.7841L5.17948 13.8882L5.18984 13.9919C5.4171 16.2644 5.70092 19.0457 6.04118 22.3348L6.04818 22.4024L6.05747 22.4697C6.51943 25.8188 7.04058 29.0053 7.62185 32.0278L7.63906 32.1173L7.66033 32.2059C8.36347 35.1356 9.22168 37.7112 10.3851 39.5394L10.408 39.5753L10.4316 39.6107C12.129 42.1567 14.6847 43.9464 17.685 45.1737C20.3035 46.2449 23.1377 47.2475 26.1827 48.1844L26.2684 48.2108L26.3552 48.2333C29.2004 48.9709 31.8674 49.914 34.362 51.0573L34.4256 51.0864L34.4902 51.1133C36.7163 52.0408 38.2978 53.2145 39.4006 54.5535L39.4439 54.6061L39.489 54.6572C40.291 55.566 40.8754 57.002 40.7108 59.5086C40.3018 63.8329 39.1215 67.0298 37.4042 69.348C35.4342 72.0073 32.5765 74.7979 28.7182 77.6936C25.7736 79.8456 23.0474 81.8899 20.5407 83.826C18.26 85.4804 15.8207 86.9323 13.2188 88.1811L10.996 89.248L10.9504 91.7132C10.8303 98.1989 12.0382 103.887 15.629 107.641L15.6904 107.705L15.7547 107.767C18.7861 110.666 22.2356 112.721 26.0902 113.822L26.1759 113.846L26.2626 113.867C28.0322 114.288 29.3389 114.702 30.2572 115.08C30.0437 115.401 29.7858 115.767 29.4776 116.18C26.2775 120.11 24.719 124.797 24.719 130.034C24.719 136.288 26.9399 141.731 31.3303 146.121L31.3521 146.143L31.3742 146.165C35.8609 150.515 41.3363 152.732 47.588 152.732C53.8318 152.732 59.267 150.519 63.6535 146.144C68.1566 141.767 70.457 136.318 70.457 130.034C70.457 124.514 68.7522 119.549 65.3402 115.308C61.9062 110.924 57.4225 108.251 52.0196 107.54L51.9796 107.535L51.9395 107.53C49.0358 107.207 46.6845 106.841 44.8532 106.441C43.5228 106.035 42.9035 105.597 42.6438 105.337C42.5329 105.169 42.1959 104.468 42.5196 102.501C42.5662 102.265 42.9049 101.331 45.1837 100.002L45.2364 99.9712L45.2882 99.9389C47.877 98.3209 50.9353 96.6256 54.4766 94.855L54.4981 94.8443L54.5195 94.8332C58.3445 92.8629 62.1647 90.7211 65.9803 88.4087L66.0177 88.386L66.0546 88.3625C70.151 85.7558 73.5812 82.6638 76.2816 79.0654C79.8452 74.3542 82.1805 68.9594 83.3079 62.9469L83.3092 62.9397L83.3106 62.9324C84.4332 56.8203 84.2443 50.7002 82.754 44.6093C81.2393 38.3042 78.2717 32.6357 73.9059 27.6399C69.5109 22.4786 63.5498 18.6772 56.2418 16.1159C53.5555 15.1405 50.2301 14.1963 46.3075 13.273C42.5143 12.3537 38.5024 11.494 34.2734 10.6932C30.0612 9.78296 26.068 8.98451 22.2949 8.2985C18.5867 7.62432 15.5092 7.10995 13.0763 6.76019L10.6344 6.27183L9.99693 6.14434L9.83756 6.11247L9.79772 6.1045L9.78776 6.10251L9.78527 6.10201L9.78465 6.10188L9.78449 6.10185L9.78445 6.10185L9 10.0242ZM9 10.0242L5.00453 10.2144L4.76084 5.09715L9.78444 6.10184L9 10.0242Z" fill="#F7CC46" stroke="#3E5CA2" stroke-width="8"/>
</svg>
