<svg width="35" height="40" viewBox="0 0 35 40" fill="none" xmlns="http://www.w3.org/2000/svg">
<path fill-rule="evenodd" clip-rule="evenodd" d="M24.2414 0.367007C24.27 0.326282 24.326 0.316385 24.3668 0.344901L27.1512 2.29458C27.1919 2.3231 27.2018 2.37922 27.1733 2.41995L23.2979 7.95463C25.1819 8.55654 26.4655 9.20581 26.4655 9.20581C26.4655 9.20581 23.328 14.6026 18.0065 14.6026C12.685 14.6026 8.90362 9.57268 8.90362 9.57268C8.90362 9.57268 10.2444 8.717 12.232 7.98311L7.98115 2.91723C7.94921 2.87914 7.95419 2.82236 7.99226 2.79041L10.5961 0.605465C10.6343 0.573509 10.691 0.578476 10.723 0.616561L16.1052 7.03087C16.5661 6.97874 17.0356 6.9496 17.5094 6.9496C18.1903 6.9496 18.8705 7.00137 19.5345 7.08922L24.2414 0.367007ZM25.2942 14.8582C26.7143 13.844 28.8632 11.1968 28.8632 11.1968C28.8632 11.1968 34.352 15.5464 34.352 24.7693C34.352 33.9921 24.8626 39.5429 24.8626 39.5429C24.8626 39.5429 20.3288 34.9642 19.2158 29.16C18.1028 23.3558 20.8622 16.9109 20.8622 16.9109C20.8622 16.9109 23.8741 15.8724 25.2942 14.8582V14.8582ZM10.0002 14.8582C8.5801 13.844 6.43124 11.1968 6.43124 11.1968C6.43124 11.1968 0.942383 15.5464 0.942383 24.7693C0.942383 33.9921 10.4318 39.5429 10.4318 39.5429C10.4318 39.5429 14.9656 34.9642 16.0786 29.16C17.1916 23.3558 14.4322 16.9109 14.4322 16.9109C14.4322 16.9109 11.4203 15.8724 10.0002 14.8582V14.8582Z" fill="#9BBA48"/>
</svg>
