<svg width="35" height="35" viewBox="0 0 35 35" fill="none" xmlns="http://www.w3.org/2000/svg">
<path fill-rule="evenodd" clip-rule="evenodd" d="M7.06514 27.7115L12.6562 26.0903L17.4853 34.92C17.4917 34.9314 17.5081 34.9314 17.5143 34.92L22.3434 26.0903L27.9346 27.7115C27.9471 27.7151 27.9587 27.7034 27.955 27.6909L26.3335 22.2104L34.9198 17.5144C34.9313 17.5082 34.9313 17.4918 34.9199 17.4855L26.2628 12.7508L27.955 7.03116C27.9587 7.01863 27.9471 7.00699 27.9346 7.01059L22.2123 8.66984L17.5143 0.0800023C17.5081 0.0685476 17.4917 0.0685473 17.4854 0.0800021L12.7874 8.66984L7.06514 7.01059C7.05262 7.00699 7.04097 7.01863 7.04472 7.03116L8.73691 12.7508L0.0798803 17.4855C0.0684255 17.4918 0.0684252 17.5082 0.07988 17.5144L8.66611 22.2104L7.04472 27.6909C7.04097 27.7034 7.05262 27.7151 7.06514 27.7115ZM11.4038 17.5602L15.3648 19.7265L17.5311 23.6874C17.5373 23.6989 17.5538 23.6989 17.5601 23.6874L19.7264 19.7265L23.6873 17.5602C23.6987 17.5539 23.6987 17.5375 23.6873 17.5312L19.7264 15.3649L17.5601 11.404C17.5538 11.3925 17.5373 11.3925 17.5311 11.404L15.3648 15.3649L11.4038 17.5312C11.3923 17.5375 11.3923 17.5539 11.4038 17.5602Z" fill="#E296E1"/>
</svg>
