<svg width="35" height="35" viewBox="0 0 35 35" fill="none" xmlns="http://www.w3.org/2000/svg">
<path fill-rule="evenodd" clip-rule="evenodd" d="M25.1897 34.8078C22.0455 34.9688 18.4459 34.9688 17.2226 34.8078C7.68063 33.5525 0.0712891 26.576 0.0712891 17.146C0.0712891 7.71595 7.87432 0.0714111 17.4999 0.0714111C27.1254 0.0714111 34.9284 7.71595 34.9284 17.146C34.9284 21.5318 33.2405 25.5314 30.4664 28.5553C29.7131 29.3765 30.7467 29.9524 31.7969 30.5376C32.8268 31.1116 33.8726 31.6945 33.2648 32.5261C32.595 33.4426 28.964 34.6146 25.1897 34.8078ZM15.049 15.0116C15.049 16.485 13.8297 17.6795 12.3258 17.6795C10.8218 17.6795 9.60254 16.485 9.60254 15.0116C9.60254 14.0235 10.1509 13.1608 10.9658 12.6997C11.0127 13.9844 12.069 15.0116 13.3653 15.0116H15.049V15.0116ZM23.4893 12.6997C23.4424 13.9844 22.3861 15.0116 21.0898 15.0116H19.4061V15.0116C19.4061 16.485 20.6254 17.6795 22.1293 17.6795C23.6333 17.6795 24.8525 16.485 24.8525 15.0116C24.8525 14.0235 24.3042 13.1608 23.4893 12.6997Z" fill="#616EB7"/>
</svg>
