<svg width="35" height="25" viewBox="0 0 35 25" fill="none" xmlns="http://www.w3.org/2000/svg">
<path fill-rule="evenodd" clip-rule="evenodd" d="M7.74833 24.9032C7.73887 24.9032 7.73226 24.894 7.73539 24.8853L16.6345 0.151796C16.6365 0.146418 16.6417 0.142822 16.6475 0.142822H26.1476C26.1534 0.142822 26.1586 0.146445 26.1605 0.151856L34.9277 24.8853C34.9307 24.8941 34.9241 24.9032 34.9147 24.9032H8.01575H7.74833ZM0.0849941 25C0.075436 25 0.0688187 24.9906 0.0721714 24.9818L6.69911 7.57963C6.70112 7.57434 6.70623 7.57086 6.71194 7.57086H12.47C12.4795 7.57086 12.4861 7.58017 12.4829 7.58894L6.07479 24.9911C6.07283 24.9964 6.06769 25 6.06192 25H0.0849941Z" fill="#CE8056"/>
</svg>
