<svg width="40" height="36" viewBox="0 0 40 36" fill="none" xmlns="http://www.w3.org/2000/svg">
<path fill-rule="evenodd" clip-rule="evenodd" d="M30.0096 0.901611L30.1333 11.7737L20.6506 16.3258L20.5337 6.06049L30.0096 0.901611Z" fill="#8BCEC1"/>
<path fill-rule="evenodd" clip-rule="evenodd" d="M39.5154 18.0334L30.1282 23.4028L20.7354 18.0249L30.1233 13.0936L39.5154 18.0334Z" fill="#8BCEC1"/>
<path fill-rule="evenodd" clip-rule="evenodd" d="M19.0657 18.0334L9.67848 23.4028L0.285645 18.0249L9.67361 13.0936L19.0657 18.0334Z" fill="#8BCEC1"/>
<path fill-rule="evenodd" clip-rule="evenodd" d="M9.57275 0.857056L19.316 5.68255L19.0669 16.1983L9.86744 11.6422L9.57275 0.857056Z" fill="#8BCEC1"/>
<path fill-rule="evenodd" clip-rule="evenodd" d="M30.275 35.0449L20.5317 30.2193L20.7808 19.7035L29.9803 24.2597L30.275 35.0449Z" fill="#8BCEC1"/>
<path fill-rule="evenodd" clip-rule="evenodd" d="M9.90949 35.1427L9.78564 24.2706L19.2684 19.7185L19.3854 29.9837L9.90949 35.1427Z" fill="#8BCEC1"/>
</svg>
