<svg width="35" height="36" viewBox="0 0 35 36" fill="none" xmlns="http://www.w3.org/2000/svg">
<path fill-rule="evenodd" clip-rule="evenodd" d="M29.1975 27.2042C32.7175 24.4358 34.9284 20.4359 34.9284 15.9878C34.9284 7.63135 27.1254 0.857178 17.4999 0.857178C7.87432 0.857178 0.0712891 7.63135 0.0712891 15.9878C0.0712891 20.2753 2.12552 24.1464 5.42617 26.8997C5.22614 27.579 5.1164 28.318 5.1164 29.0907C5.1164 32.4332 7.16982 35.1429 9.70289 35.1429C11.3488 35.1429 12.7922 33.9988 13.6014 32.2804C14.4105 33.9988 15.8539 35.1429 17.4999 35.1429C19.0002 35.1429 20.3323 34.1923 21.169 32.7226C22.0058 34.1923 23.3379 35.1429 24.8382 35.1429C27.3712 35.1429 29.4247 32.4332 29.4247 29.0907C29.4247 28.432 29.3449 27.7978 29.1975 27.2042ZM27.5901 16.2878C27.5901 20.5303 22.9698 23.9695 17.2706 23.9695C11.5712 23.9695 6.95101 20.5303 6.95101 16.2878C6.95101 12.0454 11.5712 8.60615 17.2706 8.60615C22.9698 8.60615 27.5901 12.0454 27.5901 16.2878Z" fill="#AC6ACA"/>
</svg>
