<svg width="34" height="36" viewBox="0 0 34 36" fill="none" xmlns="http://www.w3.org/2000/svg">
<path fill-rule="evenodd" clip-rule="evenodd" d="M30.7602 29.3324C30.7602 29.3324 26.3644 32.8001 17.6171 31.3651C10.9806 30.2764 7.44096 23.0805 7.44096 19.2127C7.44096 10.0423 14.3414 7.95536 19.0065 7.95536C23.6716 7.95536 26.715 12.4291 26.715 15.8928C26.715 19.3566 24.2243 22.3862 20.3483 22.3862C16.4723 22.3862 15.3244 19.7097 15.3244 17.249C15.3244 14.7883 17.3484 13.9214 19.1943 13.9214C21.0403 13.9214 21.6723 15.4715 21.6723 16.8038C21.6723 18.1361 20.6214 18.6132 19.7448 18.6132C18.8683 18.6132 18.7816 18.1782 18.4461 17.7211C18.1106 17.264 18.874 15.5337 17.6171 15.5337C16.3602 15.5337 16.1259 17.5228 16.1259 17.5228C16.1259 17.5228 16.5841 21.3625 20.3483 21.2963C24.1125 21.23 25.8982 18.3676 25.3793 15.5337C24.8603 12.6998 22.0642 9.68838 17.1568 10.2969C12.2494 10.9054 10.2458 15.7825 11.129 20.9945C12.0122 26.2066 18.3602 29.2265 23.3514 28.14C28.3426 27.0535 33.3137 23.4993 33.3137 14.4881C33.3137 5.4768 25.3793 0.0602038 15.9182 0.952889C6.45702 1.84557 0.58398 9.98151 0.959905 19.757C1.33583 29.5325 10.7662 34.8565 18.7406 35.1309C26.715 35.4054 31.6036 30.8649 31.6036 30.8649C31.6036 30.8649 32.703 29.9006 32.2719 29.1476C31.8409 28.3945 30.7602 29.3324 30.7602 29.3324Z" fill="#EB8B85"/>
</svg>
