<svg width="45" height="35" viewBox="0 0 45 35" fill="none" xmlns="http://www.w3.org/2000/svg">
<path fill-rule="evenodd" clip-rule="evenodd" d="M34.3563 16.7916C34.3538 16.7882 34.3528 16.7841 34.3535 16.78L37.1274 0.869858C37.1287 0.862532 37.1353 0.857178 37.1427 0.857178H38.0207C38.0275 0.857178 38.0334 0.861496 38.0355 0.867845L44.2851 20.3312C44.287 20.3372 44.2849 20.3439 44.2798 20.3478L39.6719 23.8865C39.665 23.8918 39.6551 23.8904 39.6499 23.8835L34.3563 16.7916ZM0.714355 27.3388C0.714355 27.3454 0.718669 27.3513 0.725047 27.3534L10.2238 30.4082C10.2284 30.4097 10.2335 30.409 10.2375 30.4063L31.4694 15.9886C31.473 15.9862 31.4754 15.9824 31.476 15.9782L33.7528 0.951436C33.7542 0.942214 33.7469 0.933927 33.7375 0.933927H14.9313C14.9266 0.933927 14.9223 0.935949 14.9193 0.939449L0.717925 17.7904C0.715617 17.7931 0.714355 17.7966 0.714355 17.8002V27.3388ZM14.182 31.1866L24.5592 34.5301C24.5638 34.5316 24.569 34.5309 24.573 34.528L36.9278 25.8112C36.9347 25.8064 36.9364 25.7971 36.9317 25.7903L32.3002 19.0112C32.2954 19.0041 32.2857 19.0023 32.2786 19.0071L14.182 31.1866Z" fill="#8BCEC1"/>
</svg>
