<svg width="39" height="40" viewBox="0 0 39 40" fill="none" xmlns="http://www.w3.org/2000/svg">
<path fill-rule="evenodd" clip-rule="evenodd" d="M17.4492 35.0126C18.182 35.1266 18.9325 35.1857 19.6967 35.1857C27.833 35.1857 34.4288 28.48 34.4288 20.2081C34.4288 11.9361 27.833 5.2304 19.6967 5.2304C19.1508 5.2304 18.6118 5.26058 18.0813 5.3194C22.1174 8.42813 24.7859 13.8133 24.7859 19.9358C24.7859 26.3724 21.8365 31.9942 17.4492 35.0126ZM19.4288 39.5429C30.08 39.5429 38.7145 30.7645 38.7145 19.9358C38.7145 9.10702 30.08 0.328613 19.4288 0.328613C8.77755 0.328613 0.143066 9.10702 0.143066 19.9358C0.143066 30.7645 8.77755 39.5429 19.4288 39.5429Z" fill="white"/>
</svg>
