<svg width="35" height="40" viewBox="0 0 35 40" fill="none" xmlns="http://www.w3.org/2000/svg">
<path fill-rule="evenodd" clip-rule="evenodd" d="M19.5929 19.8501C19.8543 19.688 20.076 19.3484 20.2549 18.9709C22.6087 19.949 24.2629 22.2602 24.2629 24.9555C24.2629 28.5361 21.3436 31.4388 17.7426 31.4388C16.2644 31.4388 14.9011 30.9496 13.8074 30.1253C13.4487 29.9526 13.1535 29.7867 12.912 29.6509C12.5374 29.4403 12.2917 29.3022 12.1379 29.3238C11.6882 29.3869 11.8188 29.8075 11.9374 30.1896C12.0179 30.4492 12.093 30.691 11.9768 30.7907C11.8552 30.8952 11.4614 30.5134 11.0011 30.0673C10.3747 29.46 9.62523 28.7335 9.27183 28.9518C8.99242 29.1243 9.2637 29.5924 9.59577 30.1652L9.62041 30.2078C9.76068 30.4499 9.92325 30.6966 10.0716 30.9216C10.3732 31.3789 10.616 31.7475 10.4945 31.8098C10.3476 31.8852 9.32412 31.1828 8.46161 30.2078C8.1287 29.8315 7.80627 29.4235 7.50659 29.0445V29.0444C6.85065 28.2146 6.30417 27.5234 5.9974 27.6053C5.62838 27.7038 5.90754 28.4777 6.31773 29.2223C6.50953 29.5706 6.73516 29.9252 6.9305 30.2323V30.2323C7.23433 30.7098 7.46493 31.0722 7.38131 31.1167C7.26845 31.1767 6.27547 30.1923 5.60102 28.9518C5.20043 28.2149 4.86406 27.4006 4.59174 26.7413C4.29642 26.0264 4.07644 25.4938 3.93158 25.4402C3.4283 25.254 3.4283 26.2973 3.63015 27.803C3.65648 27.9994 3.69569 28.2055 3.74397 28.4152C5.70149 34.8544 11.7148 39.5429 18.8293 39.5429C27.5318 39.5429 34.5864 32.5281 34.5864 23.875C34.5864 15.639 28.1959 8.88736 20.0764 8.25526C20.0866 7.86728 20.2858 7.0979 20.2858 7.0979C20.2858 7.0979 21.7192 3.572 21.795 2.81856C21.7999 2.76855 21.8059 2.71421 21.8123 2.65634C21.9016 1.84226 22.0677 0.328613 20.7868 0.328613C20.1028 0.328613 19.7847 0.845954 19.4209 1.43763V1.43764C19.2813 1.66479 19.1348 1.90289 18.9584 2.12688C17.6876 3.74023 15.5508 5.75495 14.3392 6.82831C11.7783 9.09699 9.26573 10.9615 7.80032 12.0489L7.80024 12.049C7.13376 12.5436 6.68393 12.8774 6.54471 13.0154C5.4956 14.0551 1.73397 20.9533 1.73397 20.9533C1.73397 20.9533 0.517498 23.1665 0.949882 23.6154C1.38227 24.0642 2.42496 23.9613 2.42496 23.9613C2.42496 23.9613 16.4328 20.6942 17.6869 20.4366C18.0245 20.3672 18.2629 20.3271 18.4459 20.2964C18.9427 20.213 19.0319 20.198 19.5929 19.8501ZM9.68881 15.6516C8.93689 16.3782 7.68988 18.1126 7.68988 18.1126C7.68988 18.1126 10.0075 18.2577 11.2839 17.0242C12.5603 15.7907 12.2679 13.6885 12.2679 13.6885C12.2679 13.6885 10.4407 14.925 9.68881 15.6516Z" fill="white"/>
</svg>
