<svg width="34" height="35" viewBox="0 0 34 35" fill="none" xmlns="http://www.w3.org/2000/svg">
<path fill-rule="evenodd" clip-rule="evenodd" d="M5.79248 2.96929C6.21433 1.30376 7.7232 0.0714111 9.51984 0.0714111C10.8675 0.0714111 12.0532 0.764789 12.7398 1.81427H13.864C14.5624 1.09749 15.5382 0.652363 16.618 0.652363C18.2012 0.652363 19.5609 1.60922 20.1503 2.97617H21.0915C21.6813 2.60798 22.3782 2.39522 23.1247 2.39522C24.7079 2.39522 26.0675 3.35208 26.657 4.71903H29.2164C29.2383 4.71903 29.2588 4.72492 29.2764 4.73519C29.3933 4.7245 29.5117 4.71903 29.6313 4.71903C31.7548 4.71903 33.4762 6.44042 33.4762 8.56389V20.0929L33.4762 20.1143L33.4762 20.1356V20.3017C33.4762 20.372 33.4743 20.4421 33.4704 20.5118C33.2391 28.5097 26.0474 34.9286 17.2095 34.9286C8.2257 34.9286 0.942871 28.296 0.942871 20.1143C0.942871 16.165 2.63977 12.5766 5.40578 9.92094C5.39888 13.7711 5.46391 17.7515 5.76369 17.6832C6.56638 17.5002 5.93923 5.57499 5.79248 2.96929Z" fill="white"/>
</svg>
