<svg width="31" height="40" viewBox="0 0 31 40" fill="none" xmlns="http://www.w3.org/2000/svg">
<path fill-rule="evenodd" clip-rule="evenodd" d="M22.7634 30.6119C23.2479 28.8403 22.3074 25.1982 22.3074 25.1982C22.3074 25.1982 21.6253 28.1652 20.5595 29.2618C19.6502 30.1972 18.5362 30.846 16.9385 31.0165C18.2448 30.382 19.1431 29.0591 19.1431 27.53C19.1431 25.3834 17.3729 23.6433 15.1893 23.6433C13.0057 23.6433 11.2355 25.3834 11.2355 27.53C11.2355 28.1162 11.3676 28.6722 11.6041 29.1706C10.2383 28.0826 10.0235 26.3381 10.0235 26.3381C10.0235 26.3381 8.49847 32.6699 12.7007 35.6483C16.9028 38.6268 25.1347 36.0667 25.1347 36.0667C25.1347 36.0667 13.3544 44.3555 4.62506 35.3341C-2.89452 27.5628 2.66244 17.3318 2.66244 17.3318C2.66244 17.3318 2.42245 18.2809 2.42245 19.3827C2.42245 20.4844 3.0198 21.3227 3.0198 21.3227C3.0198 21.3227 4.80168 17.5668 6.18843 16.0393C7.50088 14.5938 9.14612 13.4213 10.5672 12.4086C11.661 11.6291 12.6221 10.9442 13.1961 10.3023C16.3575 6.76735 14.4191 0.328491 14.4191 0.328491C14.4191 0.328491 17.9828 3.47023 18.9777 7.52782C19.357 9.07451 19.113 10.8343 18.8949 12.408C18.5407 14.9628 18.2545 17.0271 20.813 16.8932C24.9475 16.6766 21.3547 10.3023 21.3547 10.3023C21.3547 10.3023 30.7334 15.2317 30.0327 23.8529C29.332 32.474 19.7814 34.434 19.7814 34.434C19.7814 34.434 22.2788 32.3835 22.7634 30.6119Z" fill="white"/>
</svg>
