<svg width="35" height="31" viewBox="0 0 35 31" fill="none" xmlns="http://www.w3.org/2000/svg">
<path fill-rule="evenodd" clip-rule="evenodd" d="M12.2381 30.8952C17.3443 30.8952 21.7159 28.0573 23.5207 24.0343C23.5427 23.9852 16.2749 25.923 16.5067 25.238C16.6101 24.9321 21.0653 23.3046 24.3112 21.4062C26.1768 20.3151 27.0359 18.0054 27.0359 18.0054C27.0359 18.0054 23.8929 19.5314 22.3039 19.9185C19.102 20.6987 16.2834 20.6147 16.2834 20.5334C16.2834 20.3576 20.9636 19.4683 27.4685 15.5043C30.5283 13.6398 31.3593 10.4282 31.3593 10.4282C31.3593 10.4282 27.9954 12.4319 25.9618 13.0935C21.1393 14.6623 16.7384 15.135 16.7384 14.9227C16.7384 14.4682 20.6113 13.4032 24.7175 11.4136C26.8525 10.3791 28.7015 9.02757 30.8442 7.52456C34.3502 5.06542 34.9284 0.685669 34.9284 0.685669C34.9284 0.685669 31.4705 2.91599 29.783 3.65666C22.8198 6.7129 16.6713 8.31607 12.2381 8.66314C5.54605 9.18709 0.0712891 13.8563 0.0712891 19.9185C0.0712891 25.9808 5.51854 30.8952 12.2381 30.8952Z" fill="white"/>
</svg>
