<svg width="33" height="35" viewBox="0 0 33 35" fill="none" xmlns="http://www.w3.org/2000/svg">
<path fill-rule="evenodd" clip-rule="evenodd" d="M5.80523 30.4785C5.68305 30.3617 5.56222 30.2426 5.44279 30.1212C-0.861791 23.7115 -0.86179 13.3194 5.44279 6.90978C11.7473 0.500089 31.8362 0.0712891 31.8362 0.0712891C31.8362 0.0712891 34.5783 23.7115 28.2737 30.1212C22.6744 35.8138 13.9854 36.4506 7.69483 32.0317L12.7636 25.7078L20.8664 23.9293L14.2521 23.2571L18.4555 18.9058L23.2403 17.8401L19.4568 16.701L23.2403 9.76182L17.8586 15.8989L15.7804 12.9174L16.512 17.8401L12.7636 22.1363L11.026 16.7009V23.9293L5.80523 30.4785Z" fill="white"/>
</svg>
