<svg width="41" height="35" viewBox="0 0 41 35" fill="none" xmlns="http://www.w3.org/2000/svg">
<path fill-rule="evenodd" clip-rule="evenodd" d="M0.289623 17.5247C0.284321 17.5155 0.284318 17.5041 0.289616 17.4948L10.3118 0.0859972C10.317 0.076967 10.3266 0.0714111 10.3369 0.0714111H30.2014C30.2117 0.0714111 30.2213 0.0770146 30.2265 0.086124L40.1388 17.495C40.144 17.5041 40.144 17.5154 40.1388 17.5245L30.2265 34.9138C30.2213 34.9229 30.2117 34.9286 30.2014 34.9286H10.3369C10.3266 34.9286 10.317 34.923 10.3118 34.914L0.289623 17.5247ZM29.4481 17.5C29.4481 22.6829 25.3153 26.8846 20.2173 26.8846C15.1194 26.8846 10.9866 22.6829 10.9866 17.5C10.9866 12.317 15.1194 8.11539 20.2173 8.11539C25.3153 8.11539 29.4481 12.317 29.4481 17.5Z" fill="white"/>
</svg>
