<svg width="26" height="40" viewBox="0 0 26 40" fill="none" xmlns="http://www.w3.org/2000/svg">
<path fill-rule="evenodd" clip-rule="evenodd" d="M25.871 26.8695C25.871 33.8688 20.1756 39.5429 13.1499 39.5429C6.12415 39.5429 0.428711 33.8688 0.428711 26.8695C0.428711 20.0622 12.4618 1.3663 13.1217 0.346062C13.1368 0.322797 13.163 0.322797 13.1781 0.346062C13.838 1.3663 25.871 20.0622 25.871 26.8695ZM11.0293 35.4799C4.57397 34.0674 5.67861 26.9166 5.67861 26.9166C5.67861 26.9166 7.44134 31.2333 11.719 32.6316C15.9966 34.0298 21.1661 31.9791 21.1661 31.9791C21.1661 31.9791 17.4846 36.8923 11.0293 35.4799Z" fill="white"/>
</svg>
