<svg width="17" height="10" viewBox="0 0 17 10" fill="none" xmlns="http://www.w3.org/2000/svg">
<path d="M16.0582 4.42915C16.058 4.42891 16.0579 4.42863 16.0577 4.42839L12.742 0.234836C12.4936 -0.0793172 12.0919 -0.0781481 11.8446 0.237578C11.5974 0.553264 11.5984 1.06387 11.8468 1.37806L14.0729 4.19355H0.634545C0.284086 4.19355 0 4.5546 0 5C0 5.4454 0.284086 5.80645 0.634545 5.80645H14.0728L11.8468 8.62194C11.5984 8.93613 11.5974 9.44674 11.8447 9.76242C12.0919 10.0782 12.4937 10.0793 12.7421 9.76516L16.0577 5.57161C16.0579 5.57137 16.058 5.57109 16.0583 5.57085C16.3068 5.25561 16.306 4.74335 16.0582 4.42915Z" fill="#28262E"/>
</svg>
