<svg width="13" height="20" viewBox="0 0 13 20" fill="none" xmlns="http://www.w3.org/2000/svg">
<path d="M4.85049 11.5044C4.73102 11.5044 4.63406 11.4075 4.63406 11.288C4.63406 10.1684 4.36926 9.34155 3.84702 8.83013C3.3408 8.3344 2.7585 8.30681 2.67691 8.30551H2.66273C2.54402 8.30551 2.4476 8.20996 2.4463 8.09135C2.445 7.97275 2.53958 7.87514 2.65819 7.87265C2.66035 7.87255 2.66608 7.87265 2.67463 7.87265H5.8124C6.36916 7.87265 6.82193 7.41978 6.82193 6.86313L7.10416 6.49081C7.10416 6.49081 7.25478 6.06776 7.25478 6.86313C7.25478 7.6585 6.60777 8.30551 5.8124 8.30551H3.89626C3.98142 8.36784 4.06659 8.43915 4.14991 8.52086C4.7584 9.11668 5.06702 10.0476 5.06702 11.288C5.06692 11.4075 4.97007 11.5044 4.85049 11.5044Z" fill="black"/>
<path fill-rule="evenodd" clip-rule="evenodd" d="M4.31243 19.9999H11.0786C11.1981 19.9999 11.295 19.903 11.2951 19.7834V14.4077C12.1064 14.2129 12.6971 13.4691 12.6971 12.6038V5.63708C12.6971 5.51761 12.6001 5.42065 12.4806 5.42065H12.2641V5.85351V12.6038C12.2641 13.3297 11.7539 13.9224 11.0509 14.0132C10.943 14.027 10.8622 14.119 10.8622 14.2277V19.567H4.52886L4.52875 14.2429C4.52875 14.1233 4.43179 14.0265 4.31232 14.0265C3.52788 14.0265 2.88974 13.3883 2.88974 12.6039V12.4401C2.88974 12.3205 2.79278 12.2236 2.67332 12.2236C1.43795 12.2236 0.432856 11.2186 0.432856 9.98317V6.72593C0.432856 6.24481 0.824266 5.85351 1.30528 5.85351H2.88974V5.42065H1.30528C0.585546 5.42065 0 6.0062 0 6.72593V9.98317C0 11.3845 1.08398 12.5374 2.45743 12.6478C2.47918 13.5779 3.18863 14.3408 4.096 14.4468V19.7834C4.096 19.903 4.19296 19.9999 4.31243 19.9999Z" fill="black"/>
<path d="M6.35059 6.94852C5.55521 6.94852 4.9082 6.30151 4.9082 5.50614V1.44238C4.9082 0.647011 5.55521 0 6.35059 0C7.14596 0 7.79286 0.647011 7.79286 1.44238V5.50614C7.79297 6.30151 7.14596 6.94852 6.35059 6.94852ZM6.35059 0.432964C5.79382 0.432964 5.34106 0.885839 5.34106 1.44249V5.50625C5.34106 6.0629 5.79393 6.51578 6.35059 6.51578C6.90724 6.51578 7.36 6.0629 7.36 5.50625V1.44238C7.36011 0.885731 6.90724 0.432964 6.35059 0.432964Z" fill="black"/>
<path d="M8.80273 6.94855C8.00736 6.94855 7.36035 6.30154 7.36035 5.50617V2.01367C7.36035 1.2183 8.00747 0.571289 8.80273 0.571289C9.5981 0.571289 10.245 1.2183 10.245 2.01367V5.50617C10.245 6.30154 9.598 6.94855 8.80273 6.94855ZM8.80273 1.00414C8.24597 1.00414 7.79321 1.45702 7.79321 2.01367V5.50617C7.79321 6.06282 8.24608 6.51569 8.80273 6.51569C9.35939 6.51569 9.81215 6.06282 9.81215 5.50617V2.01367C9.81215 1.45702 9.35928 1.00414 8.80273 1.00414Z" fill="black"/>
<path d="M11.2548 6.94847C10.4594 6.94847 9.8125 6.30146 9.8125 5.50609V2.58485C9.8125 1.78959 10.4595 1.14258 11.2548 1.14258C12.05 1.14258 12.6972 1.78959 12.6972 2.58485V5.50609C12.6972 6.30146 12.05 6.94847 11.2548 6.94847ZM11.2548 1.57543C10.6982 1.57543 10.2454 2.02831 10.2454 2.58485V5.50609C10.2454 6.06274 10.6982 6.51561 11.2548 6.51561C11.8115 6.51561 12.2643 6.06274 12.2643 5.50609V2.58485C12.2643 2.0282 11.8114 1.57543 11.2548 1.57543Z" fill="black"/>
<path d="M3.89941 6.94855C3.10404 6.94855 2.45703 6.30154 2.45703 5.50617V2.01367C2.45703 1.2183 3.10404 0.571289 3.89941 0.571289C4.69479 0.571289 5.34169 1.2183 5.34169 2.01367V5.50617C5.34169 6.30154 4.69479 6.94855 3.89941 6.94855ZM3.89941 1.00414C3.34265 1.00414 2.88989 1.45702 2.88989 2.01367V5.50617C2.88989 6.06282 3.34276 6.51569 3.89941 6.51569C4.45607 6.51569 4.90883 6.06282 4.90883 5.50617V2.01367C4.90883 1.45702 4.45607 1.00414 3.89941 1.00414Z" fill="black"/>
<path d="M1.35901 9.43601C1.23954 9.43601 1.14258 9.33916 1.14258 9.21958V7.92102C1.14258 7.80155 1.23954 7.70459 1.35901 7.70459C1.47847 7.70459 1.57543 7.80155 1.57543 7.92102V9.21958C1.57543 9.33916 1.47847 9.43601 1.35901 9.43601Z" fill="black"/>
</svg>
