<svg width="12" height="12" viewBox="0 0 12 12" fill="none" xmlns="http://www.w3.org/2000/svg">
<path d="M1.9741 2.36713C1.81167 2.59584 1.697 2.63752 1.697 2.44397V2.09282C1.697 1.58929 1.31712 1.18109 0.848502 1.18109C0.379886 1.18109 0 1.58929 0 2.09282V5.21877C0 5.72231 0.379886 6.13051 0.848502 6.13051H3.75765C4.22627 6.13051 4.60615 5.72231 4.60615 5.21877C4.60615 4.71523 4.22627 4.30704 3.75765 4.30704C3.75765 4.30704 3.61729 4.30704 3.44395 4.30704C3.27061 4.30704 3.22188 4.09421 3.3688 3.85378C4.03596 2.76308 5.17974 2.08371 6.41589 2.08371C8.42562 2.08371 10.0606 3.84049 10.0606 6C10.0606 8.15925 8.42562 9.91603 6.41589 9.91603C5.88036 9.91603 5.44617 10.3826 5.44617 10.958C5.44617 11.5335 5.88036 12 6.41589 12C9.49498 12.0003 12 9.30856 12 6.00026C12 2.6917 9.49498 5.65977e-08 6.41589 5.65977e-08C4.65561 -0.000260439 3.01703 0.89871 1.9741 2.36713Z" fill="#FA8485"/>
</svg>
