<svg width="128" height="87" viewBox="0 0 128 87" fill="none" xmlns="http://www.w3.org/2000/svg">
<path d="M68.488 86.5382C63.9857 86.5382 60.3218 82.8743 60.3218 78.3719C60.3218 73.8684 63.9857 70.2045 68.488 70.2045C72.9915 70.2045 76.6554 73.8684 76.6554 78.3719C76.6554 82.8743 72.9915 86.5382 68.488 86.5382ZM68.488 74.3088C66.2486 74.3088 64.426 76.1325 64.426 78.3719C64.426 80.6114 66.2486 82.4339 68.488 82.4339C70.7274 82.4339 72.5512 80.6114 72.5512 78.3719C72.5512 76.1325 70.7274 74.3088 68.488 74.3088Z" fill="#2C4A93"/>
<path d="M115.451 18.471C114.318 18.471 113.398 17.5515 113.398 16.4183V10.2613C113.398 9.1281 114.318 8.20978 115.451 8.20978C116.584 8.20978 117.503 9.1281 117.503 10.2613V16.4183C117.503 17.5515 116.584 18.471 115.451 18.471Z" fill="#2C4A93"/>
<path d="M115.451 32.8365C114.318 32.8365 113.398 31.9182 113.398 30.7849V24.628C113.398 23.4948 114.318 22.5753 115.451 22.5753C116.584 22.5753 117.503 23.4948 117.503 24.628V30.7849C117.503 31.9182 116.584 32.8365 115.451 32.8365Z" fill="#2C4A93"/>
<path d="M111.347 22.5752H105.19C104.057 22.5752 103.138 21.6569 103.138 20.5237C103.138 19.3893 104.057 18.4709 105.19 18.4709H111.347C112.481 18.4709 113.399 19.3893 113.399 20.5237C113.399 21.6569 112.481 22.5752 111.347 22.5752Z" fill="#2C4A93"/>
<path d="M125.713 22.5752H119.556C118.422 22.5752 117.503 21.6569 117.503 20.5237C117.503 19.3893 118.422 18.4709 119.556 18.4709H125.713C126.846 18.4709 127.765 19.3893 127.765 20.5237C127.765 21.6569 126.846 22.5752 125.713 22.5752V22.5752Z" fill="#2C4A93"/>
<path d="M6.325 62.9484C5.29747 62.9484 4.27933 62.6959 3.34692 62.1968C1.85671 61.3995 0.764587 60.069 0.274894 58.4508C-0.214798 56.8325 -0.0468695 55.1204 0.751669 53.629C1.54903 52.1388 2.87954 51.0467 4.49776 50.557C7.834 49.5424 11.3781 51.4377 12.3915 54.7787C13.4038 58.1196 11.5096 61.6602 8.16986 62.6736C7.56273 62.858 6.94152 62.9484 6.325 62.9484ZM6.33205 54.3888C6.11832 54.3888 5.90224 54.4205 5.68734 54.4851C5.11897 54.6577 4.65159 55.0417 4.37093 55.5654C4.09027 56.0892 4.03155 56.6916 4.20417 57.2612C4.37563 57.8307 4.75963 58.2969 5.28338 58.5776C5.80712 58.8571 6.4119 58.9181 6.9791 58.7443C8.15342 58.3897 8.81926 57.1437 8.46344 55.9694C8.17103 55.0088 7.28677 54.3888 6.33205 54.3888Z" fill="#2C4A93"/>
<path d="M10.3887 12.6604C6.89859 12.6604 4.05908 9.82091 4.05908 6.33083C4.05908 2.84075 6.89859 6.10352e-05 10.3887 6.10352e-05C13.8788 6.10352e-05 16.7194 2.84075 16.7194 6.33083C16.7194 9.82091 13.8788 12.6604 10.3887 12.6604ZM10.3887 4.10549C9.16151 4.10549 8.16334 5.10249 8.16334 6.33083C8.16334 7.558 9.16151 8.55617 10.3887 8.55617C11.617 8.55617 12.614 7.558 12.614 6.33083C12.614 5.10249 11.6158 4.10549 10.3887 4.10549Z" fill="#2C4A93"/>
<path d="M29.7836 34.3373C29.2587 34.3373 28.7326 34.1365 28.3321 33.736C27.5312 32.9339 27.5312 31.6351 28.3321 30.8343L34.3822 24.783C35.1843 23.9821 36.4831 23.9821 37.2851 24.783C38.086 25.585 38.086 26.8838 37.2851 27.6847L31.2339 33.736C30.8322 34.1365 30.3085 34.3373 29.7836 34.3373Z" fill="#2C4A93"/>
<path d="M35.8336 34.3373C35.3087 34.3373 34.7837 34.1365 34.3821 33.736L28.332 27.6847C27.53 26.8838 27.53 25.585 28.332 24.783C29.1329 23.9821 30.4317 23.9821 31.2338 24.783L37.2839 30.8343C38.0859 31.6351 38.0859 32.9339 37.2839 33.736C36.8834 34.1365 36.3585 34.3373 35.8336 34.3373Z" fill="#2C4A93"/>
<path d="M67.35 9.94529C67.35 11.8359 65.8175 13.3684 63.9269 13.3684C62.0374 13.3684 60.5049 11.8359 60.5049 9.94529C60.5049 8.05581 62.0374 6.52332 63.9269 6.52332C65.8175 6.52332 67.35 8.05581 67.35 9.94529Z" fill="#2C4A93"/>
<path d="M124.813 53.0429C124.813 54.9336 123.282 56.4661 121.391 56.4661C119.5 56.4661 117.968 54.9336 117.968 53.0429C117.968 51.1535 119.5 49.621 121.391 49.621C123.282 49.621 124.813 51.1535 124.813 53.0429Z" fill="#2C4A93"/>
</svg>
