<svg width="17" height="20" viewBox="0 0 17 20" fill="none" xmlns="http://www.w3.org/2000/svg">
<path d="M16.3471 3.91885L16.3469 3.91883C14.9339 3.71677 13.8473 2.50312 13.8473 1.03453V1.02895V1.02833C13.8474 0.953983 13.7952 0.895649 13.7272 0.885167M16.3471 3.91885L13.7272 0.885167M16.3471 3.91885L16.3542 3.91983C16.3871 3.92428 16.413 3.93933 16.4295 3.95675C16.4449 3.97303 16.4509 3.98957 16.4513 4.00655C16.6299 11.1382 14.5469 14.9995 12.4963 17.0769C11.465 18.1216 10.4262 18.7316 9.65078 19.0796C9.26297 19.2536 8.94141 19.3619 8.72044 19.4261C8.61752 19.456 8.53655 19.4763 8.48105 19.4891C8.42554 19.4763 8.34458 19.456 8.24166 19.4261C8.02069 19.3619 7.69913 19.2536 7.31131 19.0796C6.53584 18.7316 5.49706 18.1216 4.46582 17.0769C2.41518 14.9994 0.332157 11.1382 0.51071 4.00646C0.511137 3.98948 0.517193 3.97292 0.532548 3.95665C0.548944 3.93929 0.574807 3.92427 0.607629 3.91978C0.607701 3.91977 0.607773 3.91976 0.607845 3.91975L0.612567 3.91911L0.612568 3.91911L0.615052 3.91876C2.02822 3.71675 3.11477 2.50304 3.11477 1.03445L3.11477 1.02887L3.11477 1.02819C3.11467 0.953957 3.16686 0.895602 3.23482 0.885092L16.3471 3.91885ZM13.7272 0.885167C12.3869 0.678336 10.6158 0.5 8.48105 0.5C6.34637 0.5 4.57515 0.678332 3.23487 0.885086L13.7272 0.885167Z" stroke="black"/>
<path d="M8.48139 1.4446C10.0382 1.4446 11.5488 1.54215 12.9805 1.73489C13.2129 3.11129 14.1908 4.24778 15.5183 4.68269C15.55 9.84745 14.3028 13.8793 11.899 16.3641C10.4865 17.8242 9.02217 18.3683 8.48003 18.5302C7.88481 18.3529 6.21271 17.7216 4.6642 15.9017C2.49389 13.3511 1.41162 9.57916 1.4444 4.68393C2.7699 4.25138 3.74768 3.11467 3.98153 1.73497C5.41343 1.54223 6.92447 1.4446 8.48139 1.4446ZM8.48139 0.759521C6.69732 0.759521 4.97148 0.885362 3.35098 1.13363C3.33262 2.62873 2.23229 3.90731 0.768167 4.14514C0.484291 16.8008 7.48238 18.9936 8.4805 19.2405C8.93965 19.1261 10.6929 18.5954 12.3903 16.8408C15.0054 14.1374 16.3202 9.7487 16.1946 4.14495C14.7243 3.90223 13.627 2.62252 13.6117 1.13363C11.9913 0.885362 10.2654 0.759521 8.48139 0.759521Z" fill="black"/>
<path d="M8.48179 3.4775C9.50119 3.4775 10.5004 3.52187 11.4663 3.60978C11.9166 4.5541 12.6099 5.3592 13.4753 5.94241C13.321 9.99371 12.2795 13.1219 10.4367 15.0369C9.71673 15.785 8.98948 16.2158 8.48206 16.4516C7.90618 16.1809 7.04696 15.6521 6.21366 14.6677C4.54166 12.6923 3.62637 9.7619 3.48673 5.9452C4.3523 5.36214 5.04612 4.55587 5.49669 3.6099C6.4629 3.52187 7.46231 3.4775 8.48179 3.4775ZM8.48179 2.78491C7.44509 2.78491 6.41989 2.83042 5.43478 2.9201L5.04546 2.95556L4.87643 3.31042C4.4794 4.14396 3.86654 4.85601 3.10419 5.36959L2.78516 5.58453L2.7993 5.97074C2.94475 9.94534 3.91735 13.0226 5.69014 15.117C6.60418 16.1969 7.55469 16.7801 8.19112 17.0793L8.48046 17.2153L8.77043 17.0806C9.31311 16.8284 10.1284 16.3528 10.9308 15.519C12.8845 13.4888 14.0021 10.1864 14.1628 5.96905L14.1776 5.58225L13.858 5.36692C13.0957 4.85318 12.4831 4.142 12.0864 3.30999L11.9173 2.9554L11.5282 2.91998C10.5433 2.83034 9.51833 2.78491 8.48179 2.78491Z" fill="black"/>
</svg>
