<svg width="7" height="12" viewBox="0 0 7 12" fill="none" xmlns="http://www.w3.org/2000/svg">
<path d="M6.83906 3.41953C6.83906 1.53098 5.3081 0 3.41953 0C1.53096 0 0 1.53098 0 3.41953C0 5.0767 1.17886 6.45841 2.74366 6.77215V9.19111H1.29309V10.5428H2.74366V12H4.0954V10.5428H5.54597V9.19111H4.0954V6.77215C5.66023 6.45841 6.83906 5.0767 6.83906 3.41953ZM1.29309 3.41953C1.29309 2.24512 2.24512 1.29309 3.41953 1.29309C4.59394 1.29309 5.54597 2.24512 5.54597 3.41953C5.54597 4.59394 4.59394 5.54597 3.41953 5.54597C2.24512 5.54597 1.29309 4.59394 1.29309 3.41953Z" fill="#9850A0"/>
</svg>
