<svg width="12" height="12" viewBox="0 0 12 12" fill="none" xmlns="http://www.w3.org/2000/svg">
<path d="M10.0259 2.36713C10.1883 2.59584 10.303 2.63752 10.303 2.44397V2.09282C10.303 1.58929 10.6829 1.18109 11.1515 1.18109C11.6201 1.18109 12 1.58929 12 2.09282V5.21877C12 5.72231 11.6201 6.13051 11.1515 6.13051H8.24235C7.77373 6.13051 7.39385 5.72231 7.39385 5.21877C7.39385 4.71523 7.77373 4.30704 8.24235 4.30704C8.24235 4.30704 8.38271 4.30704 8.55605 4.30704C8.72939 4.30704 8.77812 4.09421 8.6312 3.85378C7.96404 2.76308 6.82026 2.08371 5.58411 2.08371C3.57438 2.08371 1.93943 3.84049 1.93943 6C1.93943 8.15925 3.57438 9.91603 5.58411 9.91603C6.11964 9.91603 6.55383 10.3826 6.55383 10.958C6.55383 11.5335 6.11964 12 5.58411 12C2.50502 12.0003 0 9.30856 0 6.00026C0 2.6917 2.50502 5.65977e-08 5.58411 5.65977e-08C7.34439 -0.000260439 8.98297 0.89871 10.0259 2.36713Z" fill="#FA8485"/>
</svg>
