<svg width="25" height="20" viewBox="0 0 25 20" fill="none" xmlns="http://www.w3.org/2000/svg">
<path d="M12.5196 19.2692C12.4132 19.3311 12.3217 19.3836 12.2466 19.4262C12.1713 19.3829 12.0795 19.3295 11.9726 19.2666C11.6424 19.072 11.1695 18.7861 10.6014 18.4221C9.46424 17.6936 7.9507 16.6557 6.43965 15.4157C4.92612 14.1736 3.43004 12.7409 2.31616 11.2253C1.19813 9.70402 0.5 8.14674 0.5 6.6451C0.5 3.25255 3.2573 0.500201 6.66125 0.500216L6.66513 0.500186C8.74698 0.48399 10.6928 1.52854 11.8259 3.26962L12.2425 3.90979L12.6625 3.27186C13.8042 1.53803 15.7462 0.495389 17.8267 0.500198C21.2244 0.51702 23.9726 3.26 23.9898 6.64636C23.9894 8.17347 23.2901 9.74296 22.1732 11.267C21.0597 12.7866 19.5642 14.2159 18.0511 15.4515C16.5405 16.6852 15.0273 17.7138 13.8905 18.4346C13.3225 18.7947 12.8497 19.0772 12.5196 19.2692Z" stroke="black"/>
</svg>
