<svg width="53" height="68" viewBox="0 0 53 68" fill="none" xmlns="http://www.w3.org/2000/svg">
<path d="M19.7849 29.8177C21.5235 29.7616 23.2983 29.2284 25.1094 28.2181C26.9386 27.2078 28.6319 25.9636 30.1894 24.4856C31.7469 22.9888 33.0056 21.5295 33.9655 20.1076C34.9435 18.6857 35.4325 17.6286 35.4325 16.9364C35.4325 16.5809 35.3057 16.3751 35.0521 16.319C34.5994 16.2067 34.0923 16.1506 33.5308 16.1506C32.5529 16.1506 31.0678 16.3564 29.0756 16.768C27.1016 17.1796 25.8972 17.4135 25.4626 17.4696C24.3397 17.6006 22.8818 18.0683 21.0888 18.8728C19.2959 19.6586 17.6478 20.4631 16.1446 21.2863C14.6596 22.0908 13.8355 22.5772 13.6725 22.7456C13.6182 22.7456 13.4371 22.3434 13.1292 21.5389C12.8395 20.7344 12.441 19.6212 11.9339 18.1993C11.4449 16.7587 10.8926 15.1684 10.2768 13.4284C9.64293 11.6697 9.21733 10.5659 9 10.1169C11.1914 9.3685 13.2469 8.67625 15.1667 8.04014C17.1045 7.40402 19.1419 6.80533 21.279 6.24405C23.4161 5.66406 25.4535 5.20569 27.3913 4.86892C29.3473 4.53215 31.267 4.36377 33.1505 4.36377C34.6175 4.36377 35.9667 4.48538 37.1982 4.7286C38.4298 4.95311 39.5888 5.33665 40.6755 5.87922C41.7802 6.42179 42.7582 7.15145 43.6094 8.0682C44.4787 8.96625 45.185 10.0327 45.7283 11.2675C45.9094 11.6417 46 12.1375 46 12.7549C46 15.0561 44.5602 18.0964 41.6806 21.8756C38.801 25.6362 35.4506 29.1442 31.6292 32.3996C27.8079 35.6363 24.8106 37.5914 22.6373 38.265L19.7849 29.8177ZM26.7937 43.4568C28.0614 43.4568 29.1662 43.6813 30.1079 44.1303C31.0678 44.5606 31.8375 45.0751 32.417 45.6738C32.9966 46.2725 33.4041 46.8338 33.6395 47.3577C33.8749 47.8441 33.9927 48.396 33.9927 49.0134C33.9927 49.9302 33.8025 50.8656 33.4222 51.8198C33.0418 52.7553 32.58 53.5598 32.0367 54.2333C31.4934 54.9068 30.9772 55.2997 30.4883 55.412C29.5103 55.5617 28.804 55.6365 28.3693 55.6365C26.5945 55.6365 25.1637 55.1594 24.0771 54.2052C22.9905 53.2511 22.3385 51.9227 22.1211 50.2202C22.1211 48.6299 22.4924 47.1425 23.2349 45.758C23.9956 44.3735 25.1818 43.6064 26.7937 43.4568Z" fill="#F7CC46"/>
<g filter="url(#filter0_d)">
<path fill-rule="evenodd" clip-rule="evenodd" d="M15.6445 26.0473L19.5771 25.9154C20.6215 25.8803 21.8118 25.5465 23.1796 24.7534L23.1862 24.7496L23.1929 24.7458C24.7065 23.8768 26.1129 22.8048 27.4155 21.5213C27.723 21.2139 28.014 20.9116 28.2888 20.6145C27.0526 20.8764 26.1577 21.0528 25.7022 21.114L25.6807 21.1169L25.6592 21.1195C25.0866 21.1889 24.0441 21.4899 22.415 22.2497L22.4008 22.2563L22.3866 22.2628C20.7132 23.0251 19.1947 23.7967 17.8267 24.5753L17.8195 24.5794L17.8123 24.5835C17.0993 24.985 16.5786 25.2883 16.2313 25.5014C16.1555 25.5479 16.0937 25.5866 16.0441 25.6182L15.6445 26.0473ZM14.7713 26.5154H13.7038C12.6474 26.5154 11.9128 26.0316 11.622 25.8151C11.2882 25.5664 11.0653 25.3114 10.9558 25.1784C10.7325 24.907 10.5887 24.657 10.5319 24.5561C10.3996 24.3212 10.2973 24.0919 10.2369 23.9525C10.1019 23.6408 9.95063 23.2476 9.79326 22.8202L9.77972 22.7834L9.76688 22.7463C9.48105 21.9215 9.08924 20.7837 8.59206 19.3346L8.58218 19.3058L8.57272 19.2769C8.10103 17.8325 7.56679 16.2336 6.96957 14.4794C6.66564 13.6031 6.41804 12.9084 6.22458 12.3869C6.12749 12.1252 6.04806 11.9179 5.98501 11.7596C5.95369 11.681 5.92851 11.6197 5.909 11.5736C5.89937 11.5508 5.89184 11.5335 5.88628 11.5209C5.88066 11.5081 5.87794 11.5023 5.87795 11.5023L4 7.46933L7.98702 6.05409C10.1422 5.28909 12.1658 4.58072 14.0577 3.92914L14.0624 3.92752L14.0671 3.92591C16.034 3.25481 18.0937 2.62587 20.245 2.03829C22.426 1.42346 24.5243 0.932074 26.5381 0.568321L26.5408 0.56783L26.5435 0.567344C28.6463 0.191024 30.7265 0 32.7816 0C34.4005 0 35.9455 0.138446 37.4032 0.435659C38.9134 0.724306 40.3573 1.21892 41.7225 1.92614C43.1885 2.67614 44.4932 3.68677 45.6213 4.94268C46.7761 6.1898 47.6938 7.64248 48.386 9.26263C48.8771 10.3574 49 11.4972 49 12.4434C49 16.2116 46.8636 20.223 43.9911 24.1415L43.9884 24.1452L43.9857 24.1489C40.9956 28.2077 37.5307 31.9743 33.6029 35.4523L33.5989 35.4558L33.595 35.4593C31.6094 37.2073 29.7248 38.71 27.9664 39.8768C29.113 40.0074 30.2304 40.3078 31.2845 40.824C32.5188 41.4036 33.6753 42.171 34.632 43.1983C35.3619 43.982 36.0609 44.9058 36.5334 45.9774C37.0315 47.0684 37.2393 48.2225 37.2393 49.3565C37.2393 50.8595 36.9375 52.3153 36.4069 53.6988L36.4021 53.7115L36.3971 53.7241C35.9065 54.9785 35.2774 56.1424 34.4816 57.1679C33.7589 58.0991 32.6064 59.2862 30.9621 59.6785L30.8352 59.7089L30.7065 59.7293C29.7368 59.8836 28.8147 60 28.0987 60C25.716 60 23.4117 59.3209 21.5418 57.6143C19.6794 55.9145 18.687 53.618 18.3772 51.095L18.346 50.8411V50.5851C18.346 48.3079 18.8648 46.1427 19.8921 44.1519L19.9011 44.1343L19.9103 44.1169C20.0973 43.7632 20.3009 43.4306 20.52 43.1194L20.1991 43.2228L14.7713 26.5154ZM33.2606 47.6709C33.03 47.1376 32.6309 46.5661 32.0632 45.9566C31.4956 45.3471 30.7417 44.8233 29.8016 44.3853C28.8792 43.9281 27.7971 43.6996 26.5554 43.6996C24.9767 43.8519 23.8148 44.6329 23.0698 46.0424C22.3425 47.4518 21.9789 48.9661 21.9789 50.5851C22.1917 52.3183 22.8303 53.6707 23.8946 54.6421C24.9589 55.6135 26.3603 56.0992 28.0987 56.0992C28.5244 56.0992 29.2162 56.023 30.1741 55.8706C30.653 55.7563 31.1586 55.3563 31.6907 54.6706C32.2229 53.985 32.6752 53.1659 33.0477 52.2136C33.4202 51.2422 33.6065 50.2898 33.6065 49.3565C33.6065 48.728 33.4912 48.1661 33.2606 47.6709ZM45.1011 10.9292C44.5689 9.67207 43.8771 8.58639 43.0257 7.67214C42.1919 6.73883 41.2341 5.996 40.152 5.44364C39.0877 4.89127 37.9524 4.50081 36.7462 4.27225C35.54 4.02463 34.2185 3.90083 32.7816 3.90083C30.9368 3.90083 29.0565 4.07225 27.1408 4.4151C25.2428 4.75794 23.2472 5.2246 21.154 5.81505C19.0609 6.38646 17.0653 6.99597 15.1673 7.64357C14.3378 7.92924 13.4825 8.22603 12.6012 8.53395C11.4848 8.92405 10.3268 9.33199 9.12728 9.75779C9.34014 10.2149 9.757 11.3387 10.3778 13.1291C10.4077 13.2167 10.4373 13.3039 10.4669 13.3908C11.0343 15.0602 11.5457 16.592 12.0009 17.9861C12.1131 18.313 12.2198 18.6238 12.3211 18.9186C12.6684 19.9294 12.9519 20.7519 13.1717 21.386C13.4108 22.0356 13.5719 22.4275 13.6548 22.5619C13.6765 22.597 13.6928 22.6145 13.7038 22.6145C13.8635 22.4431 14.6706 21.9479 16.1251 21.1289C17.5974 20.2908 19.2116 19.4718 20.9678 18.6718C22.7239 17.8528 24.1518 17.3766 25.2516 17.2433C25.6773 17.1861 26.857 16.948 28.7905 16.529C30.7417 16.11 32.1963 15.9004 33.1542 15.9004C33.704 15.9004 34.2007 15.9576 34.6442 16.0719C34.8925 16.129 35.0167 16.3385 35.0167 16.7004C35.0167 17.2904 34.681 18.1407 34.0097 19.2513C33.9709 19.3155 33.931 19.3806 33.8899 19.4465C33.8138 19.5687 33.7339 19.6939 33.6502 19.822C33.6475 19.826 33.6449 19.83 33.6423 19.834C33.6217 19.8655 33.6009 19.8971 33.5799 19.9289C32.6397 21.3765 31.4069 22.8621 29.8814 24.3859C28.3559 25.8906 26.6973 27.1572 24.9057 28.1858C24.3582 28.5032 23.8141 28.7744 23.2734 28.9993C22.0622 29.5031 20.8679 29.7748 19.6906 29.8143L22.4844 38.414C22.7214 38.3377 22.9685 38.2451 23.2255 38.1364C23.9906 37.8128 24.8443 37.346 25.7867 36.7358C27.3711 35.7099 29.2061 34.2789 31.2916 32.4428C35.0344 29.1286 38.3161 25.5573 41.1365 21.7288C43.9569 17.8813 45.3671 14.7862 45.3671 12.4434C45.3671 11.8149 45.2785 11.3101 45.1011 10.9292Z" fill="#3E5CA2"/>
</g>
<defs>
<filter id="filter0_d" x="0" y="0" width="53" height="68" filterUnits="userSpaceOnUse" color-interpolation-filters="sRGB">
<feFlood flood-opacity="0" result="BackgroundImageFix"/>
<feColorMatrix in="SourceAlpha" type="matrix" values="0 0 0 0 0 0 0 0 0 0 0 0 0 0 0 0 0 0 127 0"/>
<feOffset dy="4"/>
<feGaussianBlur stdDeviation="2"/>
<feColorMatrix type="matrix" values="0 0 0 0 0 0 0 0 0 0 0 0 0 0 0 0 0 0 0.25 0"/>
<feBlend mode="normal" in2="BackgroundImageFix" result="effect1_dropShadow"/>
<feBlend mode="normal" in="SourceGraphic" in2="effect1_dropShadow" result="shape"/>
</filter>
</defs>
</svg>
