<svg width="12" height="12" viewBox="0 0 12 12" fill="none" xmlns="http://www.w3.org/2000/svg">
<path d="M6.49116 0V1.35173H9.69246L7.31616 3.72804C6.55341 3.16216 5.60904 2.82731 4.58637 2.82731C2.05338 2.82731 0 4.88067 0 7.41366C0 9.94662 2.05338 12 4.58634 12C7.1193 12 9.17269 9.94662 9.17269 7.41366C9.17269 6.39098 8.83784 5.44659 8.27196 4.68384L10.6483 2.30756V5.50887H12V0L6.49116 0ZM4.58634 10.4895C2.88759 10.4895 1.51048 9.11238 1.51048 7.41363C1.51048 5.71488 2.88759 4.33777 4.58634 4.33777C6.28509 4.33777 7.66221 5.71488 7.66221 7.41363C7.66221 9.11241 6.28509 10.4895 4.58634 10.4895Z" fill="#9850A0"/>
</svg>
