<svg width="80" height="80" viewBox="0 0 80 80" fill="none" xmlns="http://www.w3.org/2000/svg">
<path d="M39.9997 78.2169C61.1058 78.2169 78.2162 60.9565 78.2162 39.6667H1.7832C1.7832 60.9565 18.8926 78.2169 39.9997 78.2169Z" fill="white"/>
<path d="M39.9985 79.9999C17.9432 79.9999 0 61.9066 0 39.6667C0 38.6808 0.798112 37.8827 1.78299 37.8827H78.215C79.2009 37.8827 79.999 38.6808 79.999 39.6667C79.999 61.9066 62.0547 79.9999 39.9985 79.9999ZM3.60987 41.4497C4.53352 60.8973 20.5029 76.4319 39.9985 76.4319C59.4961 76.4319 75.4655 60.8973 76.3891 41.4497H3.60987Z" fill="#28262E"/>
<path d="M53.1777 4.09569C49.0698 2.60051 44.6312 1.78403 39.9997 1.78403C18.8926 1.78403 1.7832 18.7444 1.7832 39.6668H78.2162C78.2162 28.7606 73.5663 18.9302 66.1261 12.0186" fill="#CD3529"/>
<path d="M78.215 41.4498H1.78299C0.798112 41.4498 0 40.6506 0 39.6657C0 17.7932 17.9432 0 39.9985 0C44.7402 0 49.3799 0.814442 53.7878 2.42087C54.7135 2.75767 55.1902 3.78133 54.8534 4.70702C54.5176 5.63271 53.4939 6.11137 52.5672 5.77151C48.5501 4.31001 44.3228 3.56803 39.9985 3.56803C20.5131 3.56803 4.55189 18.8026 3.6109 37.8828H76.3891C75.936 28.482 71.9005 19.8171 64.9114 13.325C64.1898 12.6545 64.149 11.5267 64.8195 10.8041C65.4891 10.0825 66.6199 10.0407 67.3394 10.7123C75.3848 18.1851 80 28.7392 80 39.6668C79.999 40.6506 79.2009 41.4498 78.215 41.4498Z" fill="#28262E"/>
<path d="M61.0108 8.07291C60.377 7.65447 59.7299 7.25541 59.0696 6.87473L61.0108 8.07291Z" fill="#CD3529"/>
<path d="M61.0087 9.85603C60.6719 9.85603 60.331 9.76112 60.0289 9.5621C59.4237 9.16304 58.8072 8.78134 58.1785 8.42005C57.3263 7.92709 57.0334 6.83607 57.5253 5.98284C58.0183 5.12962 59.1062 4.83671 59.9625 5.32966C60.6525 5.72871 61.3291 6.14614 61.9925 6.58398C62.8151 7.12592 63.0417 8.23225 62.5008 9.05384C62.1568 9.57435 61.5884 9.85603 61.0087 9.85603Z" fill="#28262E"/>
<path d="M52.207 40.0004C52.207 46.7425 46.7417 52.2078 39.9995 52.2078C33.2574 52.2078 27.7921 46.7425 27.7921 40.0004C27.7921 33.2583 33.2574 27.793 39.9995 27.793C46.7417 27.793 52.207 33.2583 52.207 40.0004Z" fill="white"/>
<path d="M39.9985 53.992C32.2837 53.992 26.0081 47.7153 26.0081 40.0006C26.0081 32.2848 32.2837 26.0081 39.9985 26.0081C47.7142 26.0081 53.991 32.2848 53.991 40.0006C53.991 47.7153 47.7142 53.992 39.9985 53.992ZM39.9985 29.5761C34.2504 29.5761 29.5751 34.2525 29.5751 40.0006C29.5751 45.7486 34.2504 50.425 39.9985 50.425C45.7475 50.425 50.424 45.7486 50.424 40.0006C50.424 34.2525 45.7475 29.5761 39.9985 29.5761Z" fill="#28262E"/>
<path d="M45.3136 40.0006C45.3136 42.9359 42.9346 45.3149 39.9993 45.3149C37.0641 45.3149 34.6851 42.9359 34.6851 40.0006C34.6851 37.0654 37.0641 34.6863 39.9993 34.6863C42.9346 34.6863 45.3136 37.0654 45.3136 40.0006Z" fill="white"/>
<path d="M39.9985 47.0979C36.0855 47.0979 32.9012 43.9136 32.9012 40.0006C32.9012 36.0866 36.0855 32.9023 39.9985 32.9023C43.9125 32.9023 47.0968 36.0866 47.0968 40.0006C47.0968 43.9136 43.9125 47.0979 39.9985 47.0979ZM39.9985 36.4693C38.0522 36.4693 36.4683 38.0543 36.4683 40.0006C36.4683 41.9469 38.0522 43.5309 39.9985 43.5309C41.9448 43.5309 43.5298 41.9469 43.5298 40.0006C43.5298 38.0543 41.9448 36.4693 39.9985 36.4693Z" fill="#28262E"/>
</svg>
