<svg width="50" height="117" viewBox="0 0 50 117" fill="none" xmlns="http://www.w3.org/2000/svg">
<path d="M48.625 36.6259C48.625 30.8349 46.5264 25.5256 43.0538 21.4118V11.2522C43.0538 10.2583 42.6672 9.30199 41.9756 8.58841C37.4779 3.93686 31.4496 1.37476 25.0008 1.37476C11.9751 1.37476 1.37762 11.9722 1.37762 24.9971C1.37762 25.729 1.41885 26.4838 1.50312 27.278C1.41793 27.5949 1.37305 27.9283 1.37305 28.2654V100.103C1.37305 101.473 2.10403 102.739 3.29027 103.424L23.0836 114.853C23.6763 115.195 24.3386 115.366 25.0008 115.366C25.6631 115.366 26.3245 115.195 26.9181 114.853L41.1365 106.643C42.3228 105.958 43.0538 104.691 43.0538 103.322V51.841C46.5264 47.7272 48.625 42.4188 48.625 36.6259Z" fill="white"/>
<path d="M25.0018 116.738C24.0895 116.738 23.189 116.498 22.3985 116.042L2.60424 104.612C0.997544 103.684 0 101.957 0 100.102V28.2647C0 27.901 0.0384733 27.5392 0.113587 27.1847C0.0403054 26.4281 0.00457758 25.7099 0.00457758 24.9963C0.00457758 11.213 11.2185 0 25.0018 0C31.8262 0 38.2053 2.7105 42.9641 7.63319C43.9076 8.60692 44.4288 9.89301 44.4288 11.2524V20.9173C48.0251 25.3582 50 30.9166 50 36.6261C50 42.3357 48.0251 47.8941 44.4288 52.3349V103.322C44.4288 105.176 43.4312 106.905 41.8245 107.833L27.6061 116.043C26.8137 116.498 25.9142 116.738 25.0018 116.738ZM25.0018 2.74806C12.7336 2.74806 2.75264 12.729 2.75264 24.9963C2.75264 25.6861 2.79111 26.385 2.86989 27.1334C2.88821 27.301 2.87447 27.4714 2.83142 27.6336C2.77554 27.8387 2.74806 28.0513 2.74806 28.2647V100.103C2.74806 100.978 3.21981 101.795 3.97827 102.233L23.7716 113.662C24.5173 114.092 25.4846 114.093 26.233 113.662L40.4505 105.452C41.209 105.013 41.6807 104.197 41.6807 103.321V51.8403C41.6807 51.516 41.7952 51.2018 42.005 50.9536C45.3888 46.9451 47.2529 41.8566 47.2529 36.6252C47.2529 31.3938 45.3897 26.3053 42.005 22.2968C41.7952 22.0486 41.6807 21.7344 41.6807 21.4101V11.2515C41.6807 10.6103 41.4352 10.0038 40.99 9.54309C36.7525 5.16085 31.075 2.74806 25.0018 2.74806Z" fill="#28262E"/>
<path d="M24.9996 49.0966C32.278 49.0966 38.1783 43.1962 38.1783 35.9178C38.1783 28.6393 32.278 22.739 24.9996 22.739C17.7211 22.739 11.8208 28.6393 11.8208 35.9178C11.8208 43.1962 17.7211 49.0966 24.9996 49.0966Z" fill="#DA3831"/>
<path d="M11.8208 35.9169C11.8208 43.1946 17.7209 49.0956 24.9996 49.0956C32.2783 49.0956 38.1783 43.1956 38.1783 35.9169H11.8208Z" fill="white"/>
<path d="M39.5519 35.9168C39.5519 28.3532 33.7498 22.1243 26.363 21.4336C26.3658 21.3997 26.3731 21.3667 26.3731 21.3319V14.8621C26.3731 14.1027 25.7576 13.488 24.9991 13.488C24.2406 13.488 23.6251 14.1027 23.6251 14.8621V21.3319C23.6251 21.3667 23.6324 21.3988 23.6351 21.4336C16.2484 22.1243 10.4463 28.3532 10.4463 35.9168C10.4463 43.4803 16.2484 49.7102 23.6351 50.3999C23.6324 50.4338 23.6251 50.4668 23.6251 50.5016V56.9715C23.6251 57.7309 24.2406 58.3455 24.9991 58.3455C25.7576 58.3455 26.3731 57.7309 26.3731 56.9715V50.5016C26.3731 50.4668 26.3658 50.4348 26.363 50.3999C33.7498 49.7093 39.5519 43.4803 39.5519 35.9168ZM25 24.112C31.043 24.112 36.0335 28.6793 36.7177 34.5427H13.2823C13.9656 28.6793 18.9561 24.112 25 24.112ZM25 47.7215C18.957 47.7215 13.9666 43.1542 13.2823 37.2908H36.7177C36.0335 43.1542 31.043 47.7215 25 47.7215Z" fill="#28262E"/>
<path d="M11.2811 80.5014C9.36937 80.5014 7.81396 78.946 7.81396 77.0343C7.81396 75.1225 9.36937 73.5671 11.2811 73.5671C13.1928 73.5671 14.7482 75.1225 14.7482 77.0343C14.7482 78.946 13.1928 80.5014 11.2811 80.5014ZM11.2811 76.3152C10.8845 76.3152 10.562 76.6376 10.562 77.0343C10.562 77.4309 10.8854 77.7534 11.2811 77.7534C11.6768 77.7534 12.0002 77.4309 12.0002 77.0343C12.0002 76.6376 11.6777 76.3152 11.2811 76.3152Z" fill="#28262E"/>
<path d="M13.3742 88.7756H9.18799C8.42953 88.7756 7.81396 88.161 7.81396 87.4016C7.81396 86.6422 8.42953 86.0276 9.18799 86.0276H13.3742C14.1327 86.0276 14.7482 86.6422 14.7482 87.4016C14.7482 88.161 14.1327 88.7756 13.3742 88.7756Z" fill="#28262E"/>
<path d="M13.3742 95.005H9.18799C8.42953 95.005 7.81396 94.3904 7.81396 93.631C7.81396 92.8716 8.42953 92.257 9.18799 92.257H13.3742C14.1327 92.257 14.7482 92.8716 14.7482 93.631C14.7482 94.3904 14.1327 95.005 13.3742 95.005Z" fill="#28262E"/>
<path d="M25.0011 41.7831C27.4076 41.7831 29.3586 39.8322 29.3586 37.4256C29.3586 35.019 27.4076 33.0681 25.0011 33.0681C22.5945 33.0681 20.6436 35.019 20.6436 37.4256C20.6436 39.8322 22.5945 41.7831 25.0011 41.7831Z" fill="#A7BBC1"/>
<path d="M25.0011 40.3034C27.4076 40.3034 29.3586 38.3525 29.3586 35.9459C29.3586 33.5393 27.4076 31.5884 25.0011 31.5884C22.5945 31.5884 20.6436 33.5393 20.6436 35.9459C20.6436 38.3525 22.5945 40.3034 25.0011 40.3034Z" fill="white"/>
<path d="M25.0008 41.6739C23.5324 41.6739 22.0658 41.1161 20.9483 39.9994C18.7132 37.7644 18.7132 34.1278 20.9483 31.8927C23.1825 29.6585 26.8181 29.6585 29.0532 31.8927C31.2883 34.1278 31.2883 37.7644 29.0532 39.9994C27.9357 41.1152 26.4673 41.6739 25.0008 41.6739ZM25.0008 32.9626C24.2368 32.9626 23.4728 33.253 22.8912 33.8346C21.7269 34.9989 21.7269 36.8914 22.8912 38.0547C24.0545 39.2172 25.947 39.2172 27.1094 38.0547C28.2737 36.8914 28.2737 34.9989 27.1094 33.8346C26.5287 33.2539 25.7647 32.9626 25.0008 32.9626Z" fill="#28262E"/>
</svg>
