<svg width="20" height="20" viewBox="0 0 20 20" fill="none" xmlns="http://www.w3.org/2000/svg">
<path fill-rule="evenodd" clip-rule="evenodd" d="M10.2945 0.472967L12.4874 3.99478L16.5284 3.05513L17.0711 2.92893L16.9449 3.47162L16.0052 7.51256L19.527 9.7055L20 10L19.527 10.2945L16.0052 12.4874L16.9449 16.5284L17.0711 17.0711L16.5284 16.9449L12.4874 16.0052L10.2945 19.527L10 20L9.7055 19.527L7.51256 16.0052L3.47162 16.9449L2.92893 17.0711L3.05513 16.5284L3.99478 12.4874L0.472967 10.2945L0 10L0.472967 9.7055L3.99478 7.51256L3.05512 3.47162L2.92893 2.92893L3.47162 3.05512L7.51256 3.99478L9.7055 0.472967L10 0L10.2945 0.472967ZM12.6007 4.48179L16.4022 3.59781L15.5182 7.39931L15.4372 7.74785L15.7409 7.937L19.0541 10L15.7409 12.063L15.4372 12.2521L15.5182 12.6007L16.4022 16.4022L12.6007 15.5182L12.2521 15.4372L12.063 15.7409L10 19.0541L7.937 15.7409L7.74785 15.4372L7.39931 15.5182L3.59781 16.4022L4.48179 12.6007L4.56284 12.2521L4.25907 12.063L0.945935 10L4.25907 7.937L4.56284 7.74785L4.48179 7.39931L3.59781 3.59781L7.39931 4.48179L7.74785 4.56284L7.937 4.25907L10 0.945935L12.063 4.25907L12.2521 4.56284L12.6007 4.48179ZM10.1809 3.20026L11.7237 5.67799L14.5666 5.0169L15.1093 4.89071L14.9831 5.4334L14.322 8.27634L16.7998 9.81915L17.2727 10.1137L16.7998 10.4082L14.322 11.951L14.9831 14.7939L15.1093 15.3366L14.5666 15.2104L11.7237 14.5493L10.1809 17.0271L9.88636 17.5L9.59186 17.0271L8.04905 14.5493L5.2061 15.2104L4.66342 15.3366L4.78961 14.7939L5.45069 11.951L2.97297 10.4082L2.5 10.1137L2.97297 9.81915L5.45069 8.27634L4.78961 5.4334L4.66342 4.89071L5.2061 5.0169L8.04905 5.67799L9.59186 3.20026L9.88636 2.72729L10.1809 3.20026ZM11.8369 6.16499L14.4404 5.55959L13.835 8.1631L13.754 8.51164L14.0577 8.70079L16.3268 10.1137L14.0577 11.5265L13.754 11.7157L13.835 12.0642L14.4404 14.6677L11.8369 14.0623L11.4884 13.9813L11.2992 14.285L9.88636 16.5541L8.47349 14.285L8.28434 13.9813L7.9358 14.0623L5.33229 14.6677L5.9377 12.0642L6.01875 11.7157L5.71498 11.5265L3.44594 10.1137L5.71498 8.70079L6.01875 8.51164L5.9377 8.1631L5.33229 5.55959L7.9358 6.16499L8.28434 6.24604L8.47349 5.94228L9.88636 3.67323L11.2992 5.94228L11.4884 6.24604L11.8369 6.16499Z" fill="black"/>
<path d="M12.7996 4.6001H7.39961L5.59961 7.0001L6.19961 11.8001L7.39961 14.2001L9.79961 15.4001L11.5996 14.8001L12.7996 13.0001L14.5996 10.0001V7.0001C14.5996 7.0001 12.9996 5.2001 12.7996 4.6001Z" fill="white"/>
<path d="M10.0886 15.7448C10.0899 15.7445 10.0913 15.7442 10.0927 15.7438C10.1269 15.7361 10.1789 15.7232 10.2462 15.7037C10.3808 15.6646 10.5759 15.5988 10.8109 15.4934C11.2809 15.2824 11.9096 14.9132 12.5333 14.2813C13.7749 13.0234 15.0282 10.6927 14.9208 6.40268C14.9197 6.35975 14.8844 6.31117 14.8192 6.30235L14.8153 6.30181L14.8152 6.3018C13.9917 6.18404 13.3584 5.47661 13.3584 4.62072V4.61737V4.61706C13.3585 4.54805 13.3094 4.49179 13.244 4.48168L10.0886 15.7448ZM10.0886 15.7448C10.0873 15.7445 10.086 15.7442 10.0846 15.7438C10.0504 15.7361 9.99831 15.7232 9.93105 15.7037C9.79648 15.6646 9.60134 15.5988 9.36631 15.4934C8.89634 15.2824 8.26767 14.9132 7.64391 14.2813C6.4023 13.0234 5.14903 10.6927 5.25644 6.40266M10.0886 15.7448L6.93327 4.48164C6.86781 4.49175 6.81877 4.54803 6.81886 4.61698L6.81886 4.61732L6.81886 4.62067C6.81886 5.47656 6.1856 6.18402 5.36196 6.30176L5.36069 6.30194L5.36069 6.30193L5.35801 6.3023C5.35794 6.30231 5.35786 6.30232 5.35779 6.30233C5.29271 6.31122 5.25752 6.35972 5.25644 6.40266M5.25644 6.40266L5.00652 6.39637M5.25644 6.40266L5.00652 6.39637M5.00652 6.39637C5.01098 6.21951 5.14908 6.07827 5.32451 6.05455M5.00652 6.39637L5.32451 6.05455M5.32451 6.05455L5.32658 6.05427C6.02896 5.95387 6.56886 5.35026 6.56886 4.62067L5.32451 6.05455ZM10.0456 15.7537C10.0455 15.7537 10.0455 15.7537 10.0456 15.7537L10.0456 15.7537Z" stroke="black" stroke-width="0.5"/>
<path d="M10.089 4.86686C11.0231 4.86686 11.9295 4.92539 12.7885 5.04103C12.928 5.86687 13.5147 6.54876 14.3112 6.80971C14.3302 9.90857 13.5818 12.3277 12.1396 13.8185C11.2921 14.6946 10.4135 15.0211 10.0882 15.1182C9.73108 15.0118 8.72782 14.633 7.79871 13.5411C6.49653 12.0108 5.84717 9.7476 5.86684 6.81045C6.66214 6.55093 7.2488 5.8689 7.38912 5.04108C8.24825 4.92544 9.15488 4.86686 10.089 4.86686ZM10.089 4.45581C9.01858 4.45581 7.98308 4.53131 7.01078 4.68027C6.99976 5.57734 6.33957 6.34449 5.4611 6.48718C5.29077 14.0806 9.48962 15.3963 10.0885 15.5444C10.364 15.4758 11.4159 15.1573 12.4344 14.1046C14.0035 12.4826 14.7923 9.84932 14.7169 6.48707C13.8348 6.34144 13.1764 5.57361 13.1672 4.68027C12.195 4.53131 11.1594 4.45581 10.089 4.45581Z" fill="black"/>
<path d="M10.0889 6.0867C10.7005 6.0867 11.3 6.11332 11.8796 6.16606C12.1498 6.73266 12.5657 7.21571 13.085 7.56564C12.9924 9.99642 12.3675 11.8733 11.2618 13.0224C10.8298 13.4712 10.3935 13.7297 10.089 13.8712C9.74351 13.7088 9.22798 13.3915 8.728 12.8008C7.7248 11.6156 7.17563 9.85734 7.09184 7.56731C7.61118 7.21748 8.02748 6.73371 8.29782 6.16613C8.87755 6.11332 9.47719 6.0867 10.0889 6.0867ZM10.0889 5.67114C9.46686 5.67114 8.85174 5.69845 8.26067 5.75225L8.02708 5.77353L7.92567 5.98645C7.68744 6.48657 7.31973 6.9138 6.86232 7.22195L6.6709 7.35091L6.67938 7.58264C6.76665 9.9674 7.35022 11.8137 8.41389 13.0704C8.96232 13.7183 9.53262 14.0683 9.91448 14.2478L10.0881 14.3294L10.2621 14.2485C10.5877 14.0972 11.0768 13.8119 11.5583 13.3116C12.7305 12.0935 13.4011 10.1121 13.4975 7.58163L13.5063 7.34955L13.3146 7.22035C12.8573 6.9121 12.4897 6.48539 12.2516 5.98619L12.1502 5.77344L11.9167 5.75218C11.3258 5.6984 10.7108 5.67114 10.0889 5.67114Z" fill="black"/>
</svg>
