<svg width="20" height="20" viewBox="0 0 20 20" fill="none" xmlns="http://www.w3.org/2000/svg">
<path fill-rule="evenodd" clip-rule="evenodd" d="M10.2945 0.472967L12.4874 3.99478L16.5284 3.05513L17.0711 2.92893L16.9449 3.47162L16.0052 7.51256L19.527 9.7055L20 10L19.527 10.2945L16.0052 12.4874L16.9449 16.5284L17.0711 17.0711L16.5284 16.9449L12.4874 16.0052L10.2945 19.527L10 20L9.7055 19.527L7.51256 16.0052L3.47162 16.9449L2.92893 17.0711L3.05513 16.5284L3.99478 12.4874L0.472967 10.2945L0 10L0.472967 9.7055L3.99478 7.51256L3.05512 3.47162L2.92893 2.92893L3.47162 3.05512L7.51256 3.99478L9.7055 0.472967L10 0L10.2945 0.472967ZM12.6007 4.48179L16.4022 3.59781L15.5182 7.39931L15.4372 7.74785L15.7409 7.937L19.0541 10L15.7409 12.063L15.4372 12.2521L15.5182 12.6007L16.4022 16.4022L12.6007 15.5182L12.2521 15.4372L12.063 15.7409L10 19.0541L7.937 15.7409L7.74785 15.4372L7.39931 15.5182L3.59781 16.4022L4.48179 12.6007L4.56284 12.2521L4.25907 12.063L0.945935 10L4.25907 7.937L4.56284 7.74785L4.48179 7.39931L3.59781 3.59781L7.39931 4.48179L7.74785 4.56284L7.937 4.25907L10 0.945935L12.063 4.25907L12.2521 4.56284L12.6007 4.48179ZM10.1809 3.20026L11.7237 5.67799L14.5666 5.0169L15.1093 4.89071L14.9831 5.4334L14.322 8.27634L16.7998 9.81915L17.2727 10.1137L16.7998 10.4082L14.322 11.951L14.9831 14.7939L15.1093 15.3366L14.5666 15.2104L11.7237 14.5493L10.1809 17.0271L9.88636 17.5L9.59186 17.0271L8.04905 14.5493L5.2061 15.2104L4.66342 15.3366L4.78961 14.7939L5.45069 11.951L2.97297 10.4082L2.5 10.1137L2.97297 9.81915L5.45069 8.27634L4.78961 5.4334L4.66342 4.89071L5.2061 5.0169L8.04905 5.67799L9.59186 3.20026L9.88636 2.72729L10.1809 3.20026ZM11.8369 6.16499L14.4404 5.55959L13.835 8.1631L13.754 8.51164L14.0577 8.70079L16.3268 10.1137L14.0577 11.5265L13.754 11.7157L13.835 12.0642L14.4404 14.6677L11.8369 14.0623L11.4884 13.9813L11.2992 14.285L9.88636 16.5541L8.47349 14.285L8.28434 13.9813L7.9358 14.0623L5.33229 14.6677L5.9377 12.0642L6.01875 11.7157L5.71498 11.5265L3.44594 10.1137L5.71498 8.70079L6.01875 8.51164L5.9377 8.1631L5.33229 5.55959L7.9358 6.16499L8.28434 6.24604L8.47349 5.94228L9.88636 3.67323L11.2992 5.94228L11.4884 6.24604L11.8369 6.16499Z" fill="black"/>
<path d="M7.77214 4.81807L8.18122 4.54534L9.13572 4.95443C9.57208 3.53626 10.3175 4.36353 10.6357 4.95443C11.2902 4.1908 11.9084 4.81807 12.1357 5.22716C12.8993 4.57262 13.363 5.13625 13.4993 5.49988V7.13623L13.363 11.3635C13.472 12.018 12.863 12.3635 12.5448 12.4544V15.7271H8.59027V15.5907V12.4544C8.04482 12.6726 7.72664 11.7271 7.63573 11.2271C7.19934 11.6635 6.54482 10.7726 6.2721 10.2726L6.13574 7.81805L6.68119 7.40896H7.63577C7.59032 6.7726 7.52668 5.44534 7.63577 5.22716C7.74486 5.00898 7.77214 4.86352 7.77214 4.81807Z" fill="white"/>
<mask id="path-3-inside-1_344_1074" fill="white">
<path d="M8.90931 10.9025C8.83763 10.9025 8.77945 10.8443 8.77945 10.7726C8.77945 10.1009 8.62057 9.60477 8.30723 9.29792C8.0035 9.00049 7.65412 8.98393 7.60517 8.98315H7.59666C7.52543 8.98315 7.46758 8.92582 7.4668 8.85466C7.46603 8.7835 7.52277 8.72493 7.59393 8.72344C7.59523 8.72337 7.59867 8.72344 7.6038 8.72344H9.48645C9.8205 8.72344 10.0922 8.45172 10.0922 8.11773L10.2615 7.89434C10.2615 7.89434 10.3519 7.64051 10.3519 8.11773C10.3519 8.59495 9.96367 8.98315 9.48645 8.98315H8.33677C8.38787 9.02055 8.43897 9.06334 8.48896 9.11236C8.85405 9.46985 9.03923 10.0284 9.03923 10.7726C9.03916 10.8443 8.98105 10.9025 8.90931 10.9025Z"/>
</mask>
<path d="M8.30723 9.29792L9.0069 8.58345L9.00689 8.58345L8.30723 9.29792ZM7.60517 8.98315L7.62108 7.98328L7.61312 7.98315H7.60517V8.98315ZM7.59393 8.72344L7.61491 9.72322L7.6294 9.72292L7.64387 9.72219L7.59393 8.72344ZM10.0922 8.11773L9.29525 7.51364L9.09216 7.78154V8.11773H10.0922ZM10.2615 7.89434L11.0584 8.49843L11.1517 8.37531L11.2036 8.22976L10.2615 7.89434ZM8.33677 8.98315V7.98315H5.27728L7.74616 9.79011L8.33677 8.98315ZM8.48896 9.11236L7.78884 9.82638L7.78933 9.82686L8.48896 9.11236ZM9.03923 10.7726L10.0392 10.7735V10.7726H9.03923ZM8.90931 9.90248C9.38991 9.90248 9.77945 10.292 9.77945 10.7726H7.77945C7.77945 11.3966 8.28534 11.9025 8.90931 11.9025V9.90248ZM9.77945 10.7726C9.77945 9.97252 9.59365 9.15805 9.0069 8.58345L7.60756 10.0124C7.64749 10.0515 7.77945 10.2292 7.77945 10.7726H9.77945ZM9.00689 8.58345C8.4383 8.02665 7.78226 7.98584 7.62108 7.98328L7.58925 9.98302C7.5652 9.98264 7.55414 9.98118 7.55207 9.98088C7.54994 9.98058 7.55347 9.98097 7.56011 9.98306C7.56655 9.98509 7.57399 9.98811 7.5816 9.99244C7.58867 9.99647 7.59742 10.0025 7.60757 10.0124L9.00689 8.58345ZM7.60517 7.98315H7.59666V9.98315H7.60517V7.98315ZM7.59666 7.98315C8.07426 7.98315 8.46153 8.3677 8.46674 8.84371L6.46686 8.86561C6.47363 9.48393 6.97661 9.98315 7.59666 9.98315V7.98315ZM8.46674 8.84371C8.47197 9.32118 8.09171 9.71321 7.61491 9.72322L7.57295 7.72366C6.95383 7.73665 6.46008 8.24582 6.46686 8.86561L8.46674 8.84371ZM7.64387 9.72219C7.63017 9.72288 7.61935 9.72313 7.61395 9.72323C7.60791 9.72335 7.60314 9.72338 7.6005 9.7234C7.5977 9.72341 7.59554 9.72341 7.59449 9.72341C7.59338 9.72341 7.59262 9.7234 7.59255 9.7234C7.59126 9.7234 7.59799 9.72344 7.6038 9.72344V7.72344C7.60449 7.72344 7.60693 7.72345 7.60231 7.72343C7.60121 7.72342 7.59614 7.72339 7.5901 7.72343C7.58688 7.72344 7.58158 7.72348 7.57509 7.72361C7.56923 7.72372 7.55803 7.72399 7.544 7.72469L7.64387 9.72219ZM7.6038 9.72344H9.48645V7.72344H7.6038V9.72344ZM9.48645 9.72344C10.3729 9.72344 11.0922 9.00393 11.0922 8.11773H9.09216C9.09216 7.8995 9.26815 7.72344 9.48645 7.72344V9.72344ZM10.8891 8.72182L11.0584 8.49843L9.46458 7.29025L9.29525 7.51364L10.8891 8.72182ZM10.2615 7.89434C11.2036 8.22976 11.2035 8.23003 11.2034 8.2303C11.2033 8.23039 11.2032 8.23067 11.2032 8.23085C11.203 8.23121 11.2029 8.23157 11.2028 8.23193C11.2025 8.23265 11.2023 8.23336 11.202 8.23407C11.2015 8.23549 11.201 8.2369 11.2005 8.2383C11.1995 8.2411 11.1984 8.24389 11.1973 8.2467C11.1952 8.25222 11.1929 8.25824 11.1902 8.26473C11.1857 8.27581 11.1769 8.29636 11.1634 8.32245C11.1535 8.34154 11.1218 8.40173 11.0646 8.47172C11.0353 8.50765 10.9815 8.56817 10.9009 8.62908C10.8227 8.68815 10.6781 8.77861 10.4728 8.81319C10.2442 8.85169 10.0093 8.80849 9.80958 8.6915C9.63028 8.58644 9.52786 8.45103 9.47652 8.36931C9.38248 8.21962 9.35919 8.08798 9.35635 8.07348C9.34543 8.01767 9.35187 8.01137 9.35187 8.11773H11.3519C11.3519 7.98547 11.347 7.83195 11.3191 7.68952C11.3078 7.6317 11.2747 7.4719 11.17 7.30535C11.0497 7.1138 10.7018 6.74644 10.1406 6.84097C9.75436 6.90602 9.5486 7.1662 9.51555 7.20667C9.44781 7.28962 9.40623 7.36639 9.38786 7.40182C9.36586 7.44425 9.35004 7.48091 9.34054 7.50401C9.3354 7.5165 9.3311 7.52751 9.32768 7.53651C9.32595 7.54106 9.3244 7.54523 9.32303 7.54895C9.32235 7.55082 9.32171 7.55258 9.32111 7.55424C9.3208 7.55508 9.32051 7.55588 9.32024 7.55666C9.3201 7.55705 9.31996 7.55743 9.31982 7.55781C9.31976 7.558 9.31966 7.55828 9.31962 7.55837C9.31952 7.55865 9.31943 7.55892 10.2615 7.89434ZM9.35187 8.11773C9.35187 8.04266 9.41138 7.98315 9.48645 7.98315V9.98315C10.516 9.98315 11.3519 9.14723 11.3519 8.11773H9.35187ZM9.48645 7.98315H8.33677V9.98315H9.48645V7.98315ZM7.74616 9.79011C7.7602 9.80038 7.77448 9.8123 7.78885 9.82638L9.18908 8.39833C9.10345 8.31437 9.01554 8.24072 8.92738 8.17619L7.74616 9.79011ZM7.78933 9.82686C7.88935 9.9248 8.03923 10.1743 8.03923 10.7726H10.0392C10.0392 9.88255 9.81876 9.0149 9.1886 8.39786L7.78933 9.82686ZM8.03923 10.7717C8.03966 10.2923 8.42827 9.90248 8.90931 9.90248V11.9025C9.53384 11.9025 10.0387 11.3963 10.0392 10.7735L8.03923 10.7717Z" fill="black" mask="url(#path-3-inside-1_344_1074)"/>
<path d="M12.0173 15.7402L8.95758 15.7402L12.6471 15.87H12.5173H12.277V15.8696V15.7402H12.0173ZM12.5173 15.7402H12.3004L12.5173 15.2402V15.4999H12.6471C12.6014 15.4999 12.5577 15.5082 12.5173 15.5233V15.7402Z" stroke="black"/>
<mask id="path-6-inside-2_344_1074" fill="white">
<path d="M9.80976 8.16908C9.33254 8.16908 8.94434 7.78088 8.94434 7.30366V4.86542C8.94434 4.3882 9.33254 4 9.80976 4C10.287 4 10.6751 4.3882 10.6751 4.86542V7.30366C10.6752 7.78088 10.287 8.16908 9.80976 8.16908ZM9.80976 4.25978C9.4757 4.25978 9.20405 4.5315 9.20405 4.86549V7.30372C9.20405 7.63771 9.47577 7.90943 9.80976 7.90943C10.1437 7.90943 10.4154 7.63771 10.4154 7.30372V4.86542C10.4155 4.53143 10.1437 4.25978 9.80976 4.25978Z"/>
</mask>
<path d="M10.6751 7.30366H9.67512V7.30379L10.6751 7.30366ZM10.4154 4.86542L9.41541 4.86523V4.86542H10.4154ZM9.80976 7.16908C9.88482 7.16908 9.94434 7.22859 9.94434 7.30366H7.94434C7.94434 8.33316 8.78025 9.16908 9.80976 9.16908V7.16908ZM9.94434 7.30366V4.86542H7.94434V7.30366H9.94434ZM9.94434 4.86542C9.94434 4.94049 9.88482 5 9.80976 5V3C8.78025 3 7.94434 3.83592 7.94434 4.86542H9.94434ZM9.80976 5C9.7346 5 9.67512 4.94039 9.67512 4.86542H11.6751C11.6751 3.83602 10.8394 3 9.80976 3V5ZM9.67512 4.86542V7.30366H11.6751V4.86542H9.67512ZM9.67512 7.30379C9.67511 7.22859 9.73472 7.16908 9.80976 7.16908V9.16908C10.8392 9.16908 11.6753 8.33316 11.6751 7.30352L9.67512 7.30379ZM9.80976 3.25978C8.92335 3.25978 8.20405 3.97929 8.20405 4.86549H10.204C10.204 5.08371 10.0281 5.25978 9.80976 5.25978V3.25978ZM8.20405 4.86549V7.30372H10.204V4.86549H8.20405ZM8.20405 7.30372C8.20405 8.18999 8.92348 8.90943 9.80976 8.90943V6.90943C10.0281 6.90943 10.204 7.08543 10.204 7.30372H8.20405ZM9.80976 8.90943C10.6962 8.90943 11.4154 8.18986 11.4154 7.30372H9.41541C9.41541 7.08557 9.59132 6.90943 9.80976 6.90943V8.90943ZM11.4154 7.30372V4.86542H9.41541V7.30372H11.4154ZM11.4154 4.86562C11.4156 3.97902 10.6959 3.25978 9.80976 3.25978V5.25978C9.59164 5.25978 9.41536 5.08385 9.41541 4.86523L11.4154 4.86562Z" fill="black" mask="url(#path-6-inside-2_344_1074)"/>
<mask id="path-8-inside-3_344_1074" fill="white">
<path d="M11.2814 8.1691C10.8042 8.1691 10.416 7.78089 10.416 7.30368V5.2082C10.416 4.73098 10.8043 4.34277 11.2814 4.34277C11.7587 4.34277 12.1468 4.73098 12.1468 5.2082V7.30368C12.1468 7.78089 11.7586 8.1691 11.2814 8.1691ZM11.2814 4.60248C10.9474 4.60248 10.6757 4.87421 10.6757 5.2082V7.30368C10.6757 7.63766 10.9474 7.90939 11.2814 7.90939C11.6154 7.90939 11.8871 7.63766 11.8871 7.30368V5.2082C11.8871 4.87421 11.6154 4.60248 11.2814 4.60248Z"/>
</mask>
<path d="M11.2814 7.1691C11.3565 7.1691 11.416 7.22861 11.416 7.30368H9.41602C9.41602 8.33318 10.2519 9.1691 11.2814 9.1691V7.1691ZM11.416 7.30368V5.2082H9.41602V7.30368H11.416ZM11.416 5.2082C11.416 5.28331 11.3565 5.34277 11.2814 5.34277V3.34277C10.252 3.34277 9.41602 4.17864 9.41602 5.2082H11.416ZM11.2814 5.34277C11.2063 5.34277 11.1468 5.28316 11.1468 5.2082H13.1468C13.1468 4.17879 12.311 3.34277 11.2814 3.34277V5.34277ZM11.1468 5.2082V7.30368H13.1468V5.2082H11.1468ZM11.1468 7.30368C11.1468 7.22866 11.2063 7.1691 11.2814 7.1691V9.1691C12.3109 9.1691 13.1468 8.33313 13.1468 7.30368H11.1468ZM11.2814 3.60248C10.395 3.60248 9.67573 4.32199 9.67573 5.2082H11.6757C11.6757 5.42642 11.4997 5.60248 11.2814 5.60248V3.60248ZM9.67573 5.2082V7.30368H11.6757V5.2082H9.67573ZM9.67573 7.30368C9.67573 8.18995 10.3952 8.90939 11.2814 8.90939V6.90939C11.4997 6.90939 11.6757 7.08538 11.6757 7.30368H9.67573ZM11.2814 8.90939C12.1678 8.90939 12.8871 8.18981 12.8871 7.30368H10.8871C10.8871 7.08552 11.063 6.90939 11.2814 6.90939V8.90939ZM12.8871 7.30368V5.2082H10.8871V7.30368H12.8871ZM12.8871 5.2082C12.8871 4.32199 12.1677 3.60248 11.2814 3.60248V5.60248C11.063 5.60248 10.8871 5.42642 10.8871 5.2082H12.8871Z" fill="black" mask="url(#path-8-inside-3_344_1074)"/>
<mask id="path-10-inside-4_344_1074" fill="white">
<path d="M12.7531 8.16905C12.2758 8.16905 11.8877 7.78085 11.8877 7.30363V5.5509C11.8877 5.07375 12.2759 4.68555 12.7531 4.68555C13.2302 4.68555 13.6185 5.07375 13.6185 5.5509V7.30363C13.6185 7.78085 13.2302 8.16905 12.7531 8.16905ZM12.7531 4.94526C12.4191 4.94526 12.1474 5.21698 12.1474 5.5509V7.30363C12.1474 7.63762 12.4191 7.90934 12.7531 7.90934C13.0871 7.90934 13.3588 7.63762 13.3588 7.30363V5.5509C13.3588 5.21692 13.087 4.94526 12.7531 4.94526Z"/>
</mask>
<path d="M12.7531 7.16905C12.8282 7.16905 12.8877 7.22866 12.8877 7.30363H10.8877C10.8877 8.33304 11.7235 9.16905 12.7531 9.16905V7.16905ZM12.8877 7.30363V5.5509H10.8877V7.30363H12.8877ZM12.8877 5.5509C12.8877 5.62604 12.8282 5.68555 12.7531 5.68555V3.68555C11.7236 3.68555 10.8877 4.52147 10.8877 5.5509H12.8877ZM12.7531 5.68555C12.678 5.68555 12.6185 5.62613 12.6185 5.5509H14.6185C14.6185 4.52137 13.7824 3.68555 12.7531 3.68555V5.68555ZM12.6185 5.5509V7.30363H14.6185V5.5509H12.6185ZM12.6185 7.30363C12.6185 7.22852 12.678 7.16905 12.7531 7.16905V9.16905C13.7824 9.16905 14.6185 8.33318 14.6185 7.30363H12.6185ZM12.7531 3.94526C11.8668 3.94526 11.1474 4.6647 11.1474 5.5509H13.1474C13.1474 5.76927 12.9714 5.94526 12.7531 5.94526V3.94526ZM11.1474 5.5509V7.30363H13.1474V5.5509H11.1474ZM11.1474 7.30363C11.1474 8.18984 11.8668 8.90934 12.7531 8.90934V6.90934C12.9715 6.90934 13.1474 7.0854 13.1474 7.30363H11.1474ZM12.7531 8.90934C13.6395 8.90934 14.3588 8.18983 14.3588 7.30363H12.3588C12.3588 7.0854 12.5348 6.90934 12.7531 6.90934V8.90934ZM14.3588 7.30363V5.5509H12.3588V7.30363H14.3588ZM14.3588 5.5509C14.3588 4.66449 13.6392 3.94526 12.7531 3.94526V5.94526C12.5349 5.94526 12.3588 5.76934 12.3588 5.5509H14.3588Z" fill="black" mask="url(#path-10-inside-4_344_1074)"/>
<mask id="path-12-inside-5_344_1074" fill="white">
<path d="M8.34003 8.1691C7.86281 8.1691 7.47461 7.78089 7.47461 7.30368V5.2082C7.47461 4.73098 7.86281 4.34277 8.34003 4.34277C8.81725 4.34277 9.20539 4.73098 9.20539 5.2082V7.30368C9.20539 7.78089 8.81725 8.1691 8.34003 8.1691ZM8.34003 4.60248C8.00598 4.60248 7.73432 4.87421 7.73432 5.2082V7.30368C7.73432 7.63766 8.00604 7.90939 8.34003 7.90939C8.67402 7.90939 8.94568 7.63766 8.94568 7.30368V5.2082C8.94568 4.87421 8.67402 4.60248 8.34003 4.60248Z"/>
</mask>
<path d="M8.34003 7.1691C8.4151 7.1691 8.47461 7.22861 8.47461 7.30368H6.47461C6.47461 8.33318 7.31053 9.1691 8.34003 9.1691V7.1691ZM8.47461 7.30368V5.2082H6.47461V7.30368H8.47461ZM8.47461 5.2082C8.47461 5.28326 8.4151 5.34277 8.34003 5.34277V3.34277C7.31053 3.34277 6.47461 4.17869 6.47461 5.2082H8.47461ZM8.34003 5.34277C8.26487 5.34277 8.20539 5.28316 8.20539 5.2082H10.2054C10.2054 4.17879 9.36963 3.34277 8.34003 3.34277V5.34277ZM8.20539 5.2082V7.30368H10.2054V5.2082H8.20539ZM8.20539 7.30368C8.20539 7.22871 8.26487 7.1691 8.34003 7.1691V9.1691C9.36963 9.1691 10.2054 8.33308 10.2054 7.30368H8.20539ZM8.34003 3.60248C7.45362 3.60248 6.73432 4.32199 6.73432 5.2082H8.73432C8.73432 5.42642 8.55833 5.60248 8.34003 5.60248V3.60248ZM6.73432 5.2082V7.30368H8.73432V5.2082H6.73432ZM6.73432 7.30368C6.73432 8.18995 7.45376 8.90939 8.34003 8.90939V6.90939C8.55833 6.90939 8.73432 7.08538 8.73432 7.30368H6.73432ZM8.34003 8.90939C9.22644 8.90939 9.94568 8.18981 9.94568 7.30368H7.94568C7.94568 7.08552 8.1216 6.90939 8.34003 6.90939V8.90939ZM9.94568 7.30368V5.2082H7.94568V7.30368H9.94568ZM9.94568 5.2082C9.94568 4.32206 9.22644 3.60248 8.34003 3.60248V5.60248C8.1216 5.60248 7.94568 5.42635 7.94568 5.2082H9.94568Z" fill="black" mask="url(#path-12-inside-5_344_1074)"/>
<mask id="path-14-inside-6_344_1074" fill="white">
<path d="M6.8154 9.6614C6.74372 9.6614 6.68555 9.60329 6.68555 9.53155V8.75241C6.68555 8.68073 6.74372 8.62256 6.8154 8.62256C6.88708 8.62256 6.94526 8.68073 6.94526 8.75241V9.53155C6.94526 9.60329 6.88708 9.6614 6.8154 9.6614Z"/>
</mask>
<path d="M6.8154 8.6614C7.29568 8.6614 7.68555 9.05068 7.68555 9.53155H5.68555C5.68555 10.1559 6.19176 10.6614 6.8154 10.6614V8.6614ZM7.68555 9.53155V8.75241H5.68555V9.53155H7.68555ZM7.68555 8.75241C7.68555 9.23302 7.29601 9.62256 6.8154 9.62256V7.62256C6.19144 7.62256 5.68555 8.12845 5.68555 8.75241H7.68555ZM6.8154 9.62256C6.3348 9.62256 5.94526 9.23302 5.94526 8.75241H7.94526C7.94526 8.12845 7.43937 7.62256 6.8154 7.62256V9.62256ZM5.94526 8.75241V9.53155H7.94526V8.75241H5.94526ZM5.94526 9.53155C5.94526 9.05068 6.33512 8.6614 6.8154 8.6614V10.6614C7.43904 10.6614 7.94526 10.1559 7.94526 9.53155H5.94526Z" fill="black" mask="url(#path-14-inside-6_344_1074)"/>
</svg>
