<svg width="20" height="13" viewBox="0 0 20 13" fill="none" xmlns="http://www.w3.org/2000/svg">
<path d="M20 10C20 7.32891 18.9598 4.8177 17.0711 2.92891C15.1823 1.04016 12.6711 0 10 0C7.32891 0 4.8177 1.04019 2.92891 2.92891C1.0402 4.8177 0 7.32891 0 10V10.5859H8.00844C8.16801 11.0673 8.49168 11.4704 8.93254 11.7307C9.26684 11.928 9.63383 12.0218 9.99644 12.0218C10.7154 12.0218 11.4168 11.6527 11.808 10.99C11.8844 10.8606 11.9456 10.7252 11.9923 10.5859H20V10ZM10.7989 10.3943C10.5389 10.8347 9.96895 10.9816 9.52836 10.7215C9.31496 10.5955 9.1634 10.394 9.1016 10.154C9.03977 9.91402 9.07508 9.66438 9.20109 9.45098C9.32711 9.23758 9.52863 9.08602 9.76859 9.02422C9.84578 9.00434 9.92395 8.99453 10.0016 8.99453C10.1654 8.99453 10.3269 9.03828 10.4716 9.12375C10.685 9.24973 10.8366 9.45125 10.8984 9.69125C10.9602 9.93121 10.9249 10.1809 10.7989 10.3943ZM12.0368 9.41406C12.0355 9.40902 12.0345 9.40395 12.0332 9.39891C11.9436 9.05063 11.77 8.73844 11.5298 8.48387L13.2137 5.63172L12.2045 5.03594L10.5207 7.88809C10.1818 7.80086 9.82465 7.79965 9.47629 7.88934C8.9332 8.02922 8.47707 8.37223 8.19195 8.8552C8.0875 9.03215 8.01086 9.2202 7.96219 9.41406H1.19109C1.26891 8.23254 1.58078 7.11406 2.07977 6.10383L3.38098 6.85508L3.96691 5.84023L2.66715 5.08984C3.30949 4.13371 4.13359 3.30945 5.08973 2.66711L5.8402 3.96695L6.85504 3.38102L6.10363 2.07953C7.11383 1.58055 8.23254 1.26949 9.41402 1.19168V2.69531H10.5859V1.19168C11.7674 1.26949 12.8861 1.58055 13.8963 2.07953L13.1449 3.38102L14.1597 3.96695L14.9102 2.66711C15.8663 3.30945 16.6904 4.13371 17.3328 5.08984L16.033 5.84023L16.6189 6.85508L17.9202 6.10383C18.4191 7.11406 18.731 8.23254 18.8088 9.41406H12.0368Z" fill="black"/>
</svg>
